<?xml version="1.0" encoding="UTF-8"?>
<svg version="1.1" xmlns="http://www.w3.org/2000/svg" width="720" height="502">
<path d="M0 0 C-0.27674561 0.58265625 -0.55349121 1.1653125 -0.83862305 1.765625 C-13.61174074 28.81645657 -21.57674802 56.13563998 -13 86 C-8.90347965 97.21152937 -2.01943999 105.40078557 6 114 C6.58297852 114.62583984 7.16595703 115.25167969 7.76660156 115.89648438 C10.17161302 118.47207325 12.58127531 121.0432226 14.99609375 123.60961914 C19.93284694 128.87407532 24.54867701 134.31714431 29 140 C29.74830078 140.93150879 29.74830078 140.93150879 30.51171875 141.88183594 C32.20832283 143.99453116 33.8866285 146.12083279 35.5625 148.25 C36.08078369 148.89243652 36.59906738 149.53487305 37.13305664 150.19677734 C42.36656732 156.9348301 46.12314101 164.43388198 50 172 C51.22141846 167.75925943 52.40082471 163.50743478 53.5625 159.25 C53.75307983 158.55290924 53.94365967 157.85581848 54.14001465 157.13760376 C57.39850908 145.09905514 60.1435488 132.96750773 62.76171875 120.77734375 C63.09254727 119.24326119 63.42344454 117.70919345 63.75440979 116.17514038 C65.25995769 109.18443876 66.75260906 102.19161364 68.20452595 95.18955898 C68.82417767 92.21929441 69.45887317 89.25237451 70.09691811 86.28601265 C70.39400942 84.88753992 70.68435194 83.48761437 70.96751976 82.08625603 C71.36055239 80.14403013 71.77887581 78.20697427 72.19824219 76.27026367 C72.42646667 75.175905 72.65469116 74.08154633 72.88983154 72.95402527 C74.26077562 69.30610732 76.01517183 67.47104943 79 65 C82.44678418 64.2978773 84.62310489 64.23044556 87.74902344 65.97753906 C93.535102 70.48071669 95.01342796 75.52323828 96.875 82.4375 C97.36516602 84.1393042 97.36516602 84.1393042 97.86523438 85.87548828 C98.56565393 88.3140473 99.25576849 90.75558544 99.93652344 93.19970703 C101.00441826 97.01578848 102.10924648 100.81921 103.2265625 104.62109375 C105.32000397 111.74637938 107.37878195 118.88128473 109.42987061 126.01885986 C110.20574177 128.71493117 110.9853874 131.40990583 111.7649231 134.10491943 C112.69997139 137.34005432 113.63105788 140.57632498 114.5625 143.8125 C114.90925781 145.01116699 115.25601563 146.20983398 115.61328125 147.44482422 C115.9278125 148.54197754 116.24234375 149.63913086 116.56640625 150.76953125 C116.84427979 151.73479736 117.12215332 152.70006348 117.40844727 153.69458008 C118 156 118 156 118 158 C138.79 158 159.58 158 181 158 C181 155.36 181 152.72 181 150 C182.77716504 139.55525811 188.61887374 129.49574109 197 123 C215.85042178 110.29697691 239.15836855 106.8271094 261.52734375 110.63671875 C265.18633571 111.4804683 268.6359899 112.31799495 272 114 C271.37658609 117.5382203 270.44678155 120.73293028 269.15234375 124.08203125 C268.79462891 125.01337891 268.43691406 125.94472656 268.06835938 126.90429688 C267.69517578 127.86400391 267.32199219 128.82371094 266.9375 129.8125 C266.56044922 130.79154297 266.18339844 131.77058594 265.79492188 132.77929688 C264.86684405 135.1876001 263.93509884 137.59441614 263 140 C262.35063477 139.76925781 261.70126953 139.53851563 261.03222656 139.30078125 C250.84541982 135.82173855 237.04636601 134.49182415 227.0625 139.1875 C222.54281274 141.96702893 219.69593392 144.91219825 218 150 C216.96553525 156.5210563 218.40485549 160.40832036 222.12573242 165.72558594 C225.2274877 169.48955001 228.93628644 172.22517963 232.875 175.0625 C241.65810696 181.49801429 249.98514522 188.12225574 255 198 C255.47953125 198.94359375 255.47953125 198.94359375 255.96875 199.90625 C260.16000163 209.99630023 259.23441635 223.27346864 255.32421875 233.2890625 C248.69349574 246.863463 238.57796649 254.22150489 225 260 C205.47832149 266.66119541 179.17660584 267.25958679 160 259 C161.0858686 252.91913584 162.86303113 247.27920781 165 241.5 C165.26119629 240.78134766 165.52239258 240.06269531 165.79150391 239.32226562 C167.75588962 234.12205519 167.75588962 234.12205519 170 233 C171.9515331 233.60210091 173.88624741 234.25885585 175.8125 234.9375 C187.13723458 238.29167835 202.31435391 239.74112979 213.18359375 234.27734375 C217.07743537 231.53909384 219.47522154 228.57433538 221 224 C221.72817913 216.6481915 220.38048227 212.08992582 215.82421875 206.17578125 C212.92178164 202.73281358 209.57918767 200.08233426 206 197.375 C204.79156985 196.44543835 203.58323484 195.515753 202.375 194.5859375 C201.80394531 194.14991211 201.23289062 193.71388672 200.64453125 193.26464844 C198.40395693 191.54164146 196.19969389 189.77475303 194 188 C193.54753906 188.42667969 193.09507812 188.85335937 192.62890625 189.29296875 C186.90256153 194.54302015 180.8494753 199.24321162 174.65795898 203.92724609 C169.74890286 207.64588693 164.91423651 211.44100968 160.125 215.3125 C154.2193807 220.08005319 148.18684326 224.60106122 142 229 C144.26559817 240.64922334 147.40289232 251.98031737 150.6875 263.375 C150.9518988 264.297435 151.21629761 265.21987 151.4887085 266.17025757 C157.88053062 289.29576366 157.88053062 289.29576366 166.19140625 311.76171875 C168.06000792 316.93422483 167.68665436 322.89712103 166 328.0625 C163.15098427 330.82248398 159.99123359 332.05847961 156 332 C152.05822941 330.06413852 148.88824107 327.34140985 145.5625 324.5 C141.19398671 320.80256993 136.76495839 317.20453616 132.25 313.6875 C127.1743362 309.73132315 122.16646786 305.70208256 117.1875 301.625 C100.62640118 288.08542606 100.62640118 288.08542606 83 276 C75.90249256 281.38389691 68.89601235 286.85969932 62 292.5 C57.198264 296.42614884 52.37026038 300.30206206 47.4375 304.0625 C43.37045228 307.16312054 39.3473854 310.30537157 35.36376953 313.51245117 C33.46339033 315.04166632 31.55666527 316.56262654 29.6484375 318.08203125 C27.30001798 319.95197731 24.97538859 321.84620552 22.6640625 323.76171875 C14.20828945 330.54550645 14.20828945 330.54550645 9.5 330.875 C6 330 6 330 3.4375 328.125 C1.28359797 323.44260428 1.59128639 319.91280023 3 315 C4.91236855 311.02378816 7.41528776 307.56690289 10 304 C10.99012282 302.60975906 11.97966479 301.21910433 12.96875 299.828125 C16.28020068 295.19499663 19.63546054 290.59465957 23 286 C23.54930176 285.24879883 24.09860352 284.49759766 24.66455078 283.72363281 C27.76994978 279.47768504 30.88189453 275.23662427 34 271 C33.30390625 271.7115625 32.6078125 272.423125 31.890625 273.15625 C-4.00346735 309 -4.00346735 309 -18 309 C-16.6540722 304.99726681 -14.9630344 302.6664078 -12 299.6875 C-3.42162465 290.41732019 3.63500946 278.85020245 8 267 C8.39058594 265.95585937 8.78117187 264.91171875 9.18359375 263.8359375 C14.63017505 246.83657304 13.48765876 227.84301963 8 211 C7.78569336 210.33597168 7.57138672 209.67194336 7.35058594 208.98779297 C0.51833112 188.38660542 -10.86369228 169.4110958 -22.0625 150.9375 C-38.82966124 123.15870994 -50.92317835 95.47614261 -42.83203125 62.40576172 C-36.75873755 39.62581531 -25.57587942 14.27714514 -6 0 C-3.50907189 -1.24546405 -2.58919267 -0.7767578 0 0 Z M82 155 C81.80365967 155.79696289 81.60731934 156.59392578 81.4050293 157.41503906 C80.5088692 161.029174 79.59836136 164.63954349 78.6875 168.25 C78.37876953 169.50425781 78.07003906 170.75851563 77.75195312 172.05078125 C77.44580078 173.25605469 77.13964844 174.46132812 76.82421875 175.703125 C76.54666748 176.81333008 76.26911621 177.92353516 75.9831543 179.06738281 C75.00979622 181.97077921 74.10311161 183.79044706 72 186 C66.26683538 187.52104368 60.79262229 186.72692783 55 186 C55.10393066 186.96921387 55.10393066 186.96921387 55.20996094 187.95800781 C57.18974686 207.76291253 58.30593682 228.82565594 48.890625 246.92578125 C48.44976562 247.95251953 48.44976562 247.95251953 48 249 C48.33 249.66 48.66 250.32 49 251 C49.57500244 250.18994507 49.57500244 250.18994507 50.16162109 249.36352539 C51.89504246 246.92670568 53.63492239 244.4945705 55.375 242.0625 C55.97828125 241.21236328 56.5815625 240.36222656 57.203125 239.48632812 C57.78320312 238.67744141 58.36328125 237.86855469 58.9609375 237.03515625 C59.49509277 236.2862915 60.02924805 235.53742676 60.57958984 234.76586914 C62.58728022 232.26988693 63.75021492 232.03720203 66.9375 231.5625 C76.10741826 231.75196112 84.51838576 239.66948793 91.46875 245.046875 C93.26295257 246.43129056 95.114388 247.74292534 97 249 C96.39455941 242.98687417 95.17241838 237.4259026 93.5 231.625 C93.27441406 230.81933594 93.04882812 230.01367188 92.81640625 229.18359375 C91.66665943 224.99426106 91.66665943 224.99426106 90 221 C89.63777396 215.47605287 89.56245411 212.54751668 93 208 C95.60761155 205.68662821 98.38032008 203.62624792 101.1875 201.5625 C101.91775391 201.01529297 102.64800781 200.46808594 103.40039062 199.90429688 C106.36725836 197.68374485 109.34575871 195.47963098 112.33447266 193.28857422 C113.06585449 192.74861816 113.79723633 192.20866211 114.55078125 191.65234375 C115.21376221 191.16628662 115.87674316 190.68022949 116.55981445 190.17944336 C117.03507568 189.79022705 117.51033691 189.40101074 118 189 C118 188.67 118 188.34 118 188 C117.13048706 187.970271 117.13048706 187.970271 116.2434082 187.93994141 C113.59934063 187.84427399 110.9560183 187.73476547 108.3125 187.625 C107.40048828 187.5940625 106.48847656 187.563125 105.54882812 187.53125 C104.66259766 187.49257812 103.77636719 187.45390625 102.86328125 187.4140625 C102.05157471 187.3826416 101.23986816 187.3512207 100.40356445 187.31884766 C97.49359428 186.93282216 95.54611856 186.50452461 93 185 C91.5144043 182.01904297 91.5144043 182.01904297 90.32421875 178.2421875 C90.10933304 177.57913605 89.89444733 176.91608459 89.67304993 176.23294067 C88.99262262 174.11903317 88.33988366 171.99770987 87.6875 169.875 C87.23031585 168.43822801 86.77135144 167.00202119 86.31054688 165.56640625 C85.18631923 162.05058798 84.08675566 158.52760571 83 155 C82.67 155 82.34 155 82 155 Z M47 251 C48 253 48 253 48 253 Z M37 265 C38 267 38 267 38 267 Z " fill="#FBFAF8" transform="translate(86,56)"/>
<path d="M0 0 C130.68 0 261.36 0 396 0 C396 30.36 396 60.72 396 92 C265.32 92 134.64 92 0 92 C0 61.64 0 31.28 0 0 Z " fill="#EC6A20" transform="translate(273,6)"/>
<path d="M0 0 C17.5344622 -0.36328306 36.16366018 1.45133425 49.63671875 13.71875 C55.84769393 20.30145437 58.11599672 27.55102428 58.390625 36.50390625 C57.94855852 50.66429371 52.30409786 61.16705594 42.203125 70.87890625 C36.73623629 75.59954788 29.3663982 81.12890625 21.890625 81.12890625 C21.890625 81.78890625 21.890625 82.44890625 21.890625 83.12890625 C22.48746094 83.39832031 23.08429688 83.66773438 23.69921875 83.9453125 C27.96329245 86.24836835 30.90830629 89.80542125 32.79418945 94.26611328 C35.45997196 103.40515301 35.64567377 112.61807063 36.015625 122.06640625 C36.12493007 124.5796942 36.23779281 127.09279258 36.3522644 129.60585022 C36.42173581 131.15633459 36.48776866 132.70697933 36.54934692 134.25779724 C36.81367683 140.58066181 37.36341551 146.80239239 37.890625 153.12890625 C26.010625 153.12890625 14.130625 153.12890625 1.890625 153.12890625 C0.7382872 150.82423065 0.7203934 149.38924587 0.64111328 146.82202148 C0.61083038 145.93026718 0.58054749 145.03851288 0.54934692 144.11973572 C0.52017181 143.15209793 0.4909967 142.18446014 0.4609375 141.1875 C0.38722883 139.13865346 0.31299293 137.08982583 0.23828125 135.04101562 C0.12521394 131.81125516 0.01609108 128.58152406 -0.08349609 125.35131836 C-0.18170867 122.23366802 -0.29673209 119.11698186 -0.4140625 116 C-0.43918915 115.04653183 -0.4643158 114.09306366 -0.49020386 113.11070251 C-0.72851337 107.15857302 -1.43932787 101.53398891 -4.109375 96.12890625 C-6.33894796 94.47040605 -6.33894796 94.47040605 -9.109375 94.12890625 C-10.13675781 93.92007813 -11.16414062 93.71125 -12.22265625 93.49609375 C-13.27839844 93.33367187 -14.33414063 93.17125 -15.421875 93.00390625 C-17.31770833 92.71223958 -19.21354167 92.42057292 -21.109375 92.12890625 C-21.34374268 93.26263672 -21.57811035 94.39636719 -21.81958008 95.56445312 C-24.14776979 106.76136898 -26.61775851 117.91943859 -29.20141602 129.06005859 C-29.80934168 131.68268831 -30.41361571 134.30614254 -31.01757812 136.9296875 C-31.40603919 138.61072581 -31.79470295 140.2917173 -32.18359375 141.97265625 C-32.36274826 142.75064575 -32.54190277 143.52863525 -32.72648621 144.3302002 C-33.41962657 147.31192493 -34.14067999 150.22282123 -35.109375 153.12890625 C-46.659375 153.12890625 -58.209375 153.12890625 -70.109375 153.12890625 C-68.9843746 143.00390262 -68.9843746 143.00390262 -68.05589294 139.1685791 C-67.84731155 138.29516876 -67.63873016 137.42175842 -67.42382812 136.5218811 C-67.19687256 135.59620331 -66.96991699 134.67052551 -66.73608398 133.71679688 C-66.49519547 132.71510468 -66.25430695 131.71341248 -66.00611877 130.68136597 C-65.21114044 127.3813398 -64.40834921 124.08326795 -63.60546875 120.78515625 C-63.04265802 118.45580406 -62.48033485 116.12633401 -61.91847229 113.79675293 C-60.43534153 107.65322743 -58.9455733 101.51133022 -57.45440674 95.36975098 C-55.96755677 89.24095722 -54.48696828 83.11065194 -53.00585938 76.98046875 C-49.95796869 64.37029595 -46.90191412 51.76211276 -43.84328461 39.15454102 C-42.7231812 34.53677367 -41.60398176 29.91878737 -40.48486328 25.30078125 C-38.6937189 17.90999002 -36.90192952 10.51935562 -35.109375 3.12890625 C-32.70875527 2.80283822 -30.30793842 2.47835981 -27.90698242 2.15478516 C-26.89368488 2.01690331 -26.89368488 2.01690331 -25.85991669 1.87623596 C-17.25687522 0.71990702 -8.66603869 0.35927045 0 0 Z M-5.109375 24.12890625 C-6.53817078 30.19675154 -7.96180618 36.26579065 -9.38183594 42.33569336 C-9.86566929 44.40107729 -10.3506896 46.46618353 -10.83691406 48.53100586 C-11.53501564 51.49651288 -12.22886261 54.46298763 -12.921875 57.4296875 C-13.14061279 58.35477615 -13.35935059 59.27986481 -13.5847168 60.23298645 C-13.78492432 61.09365219 -13.98513184 61.95431793 -14.19140625 62.84106445 C-14.36905518 63.598293 -14.5467041 64.35552155 -14.72973633 65.13569641 C-15.20292622 67.28190281 -15.20292622 67.28190281 -15.109375 70.12890625 C-5.18294273 70.8201085 3.31729828 69.31186535 11.265625 63.00390625 C16.48390424 58.05350582 20.49282843 50.64813619 21.12890625 43.421875 C21.27962784 37.11536654 21.30325259 33.04583413 16.890625 28.12890625 C16.4575 27.55140625 16.024375 26.97390625 15.578125 26.37890625 C9.78284316 22.08610489 1.54932163 22.28336949 -5.109375 24.12890625 Z " fill="#008CD1" transform="translate(645.109375,165.87109375)"/>
<path d="M0 0 C-0.27674561 0.58265625 -0.55349121 1.1653125 -0.83862305 1.765625 C-13.61174074 28.81645657 -21.57674802 56.13563998 -13 86 C-8.90347965 97.21152937 -2.01943999 105.40078557 6 114 C6.58297852 114.62583984 7.16595703 115.25167969 7.76660156 115.89648438 C10.17161302 118.47207325 12.58127531 121.0432226 14.99609375 123.60961914 C19.93301967 128.87425952 24.54598511 134.31908618 29 140 C30.0402881 141.28652018 31.08065879 142.57297359 32.12109375 143.859375 C52.16692259 168.96412495 60.13359783 195.09567606 56.609375 227.40625 C54.87895078 237.61131592 50.46312515 246.74511103 46 256 C45.34 256 44.68 256 44 256 C43.74734375 256.56074219 43.4946875 257.12148438 43.234375 257.69921875 C40.80204517 262.23289683 37.25463917 266.03783058 34 270 C33.51402344 270.62390625 33.02804688 271.2478125 32.52734375 271.890625 C28.86703261 276.45801033 24.54766683 279.9824819 19.9765625 283.6171875 C17.00789675 285.99367845 14.1331905 288.45842246 11.25 290.9375 C6.71336139 294.72790301 2.04128255 298.15574221 -2.875 301.4375 C-3.49342773 301.85056396 -4.11185547 302.26362793 -4.74902344 302.68920898 C-14.39054592 309 -14.39054592 309 -18 309 C-16.6540722 304.99726681 -14.9630344 302.6664078 -12 299.6875 C-3.42162465 290.41732019 3.63500946 278.85020245 8 267 C8.39058594 265.95585937 8.78117187 264.91171875 9.18359375 263.8359375 C14.63017505 246.83657304 13.48765876 227.84301963 8 211 C7.78569336 210.33597168 7.57138672 209.67194336 7.35058594 208.98779297 C0.51833112 188.38660542 -10.86369228 169.4110958 -22.0625 150.9375 C-38.82966124 123.15870994 -50.92317835 95.47614261 -42.83203125 62.40576172 C-36.75873755 39.62581531 -25.57587942 14.27714514 -6 0 C-3.50907189 -1.24546405 -2.58919267 -0.7767578 0 0 Z " fill="#008CD1" transform="translate(86,56)"/>
<path d="M0 0 C3.73046875 1.4921875 3.73046875 1.4921875 4.90966797 3.71386719 C5.10189941 4.40125977 5.29413086 5.08865234 5.4921875 5.796875 C5.7190625 6.5794165 5.9459375 7.36195801 6.1796875 8.16821289 C6.40914063 9.02020264 6.63859375 9.87219238 6.875 10.75 C7.12765625 11.63743896 7.3803125 12.52487793 7.640625 13.43920898 C8.4459373 16.28795143 9.22634734 19.14250763 10 22 C10.25040039 22.92119629 10.50080078 23.84239258 10.75878906 24.79150391 C11.75936359 28.4774535 12.75854027 32.16375069 13.74951172 35.85229492 C15.36058606 41.80446517 17.11174081 47.6927044 19 53.5625 C21.20013844 60.41076704 23.30769347 67.27929105 25.3125 74.1875 C25.69438477 75.47926147 25.69438477 75.47926147 26.08398438 76.79711914 C26.32052734 77.62074951 26.55707031 78.44437988 26.80078125 79.29296875 C27.00872314 80.0099292 27.21666504 80.72688965 27.4309082 81.46557617 C28.2147777 84.95650247 28.59230723 88.44550914 29 92 C29.80971756 91.99777939 30.61943512 91.99555878 31.45368958 91.99327087 C39.17374616 91.97303521 46.89378945 91.95790924 54.61386585 91.94818783 C58.58056097 91.9430216 62.54723375 91.93604139 66.51391602 91.92456055 C110.08881153 91.80191669 110.08881153 91.80191669 122 94 C120.70578044 96.89878769 119.42138761 98.78384618 117.015625 100.84765625 C116.41741943 101.36473145 115.81921387 101.88180664 115.20288086 102.41455078 C114.55843018 102.95837402 113.91397949 103.50219727 113.25 104.0625 C112.5804126 104.63468262 111.9108252 105.20686523 111.22094727 105.79638672 C105.18183394 110.9216448 98.98419096 115.82953511 92.71630859 120.67041016 C90.45227935 122.4243082 88.20295933 124.19650808 85.95385742 125.96948242 C79.86104116 130.77197307 73.74575231 135.54569033 67.625 140.3125 C66.88797852 140.88718018 66.15095703 141.46186035 65.39160156 142.05395508 C60.63336196 145.75570238 55.83516508 149.3993278 51 153 C52.25539823 162.18574385 54.60149643 170.83153028 57.30126953 179.67089844 C58.23670239 182.78900798 59.11034594 185.9230496 59.98608398 189.05834961 C62.67529262 198.6591895 65.55795876 208.19697712 68.51699829 217.71749878 C68.96006543 219.14317432 69.4019613 220.56921445 69.84262085 221.99563599 C70.46781746 224.01661901 71.09832513 226.03586804 71.73046875 228.0546875 C72.27803833 229.81014893 72.27803833 229.81014893 72.83666992 231.60107422 C73.68339453 234.0749672 74.57661853 236.39693779 75.62353516 238.78198242 C77.39681412 242.92770609 77.23338027 245.56577495 77 250 C72.82161258 249.45542344 70.49538391 247.13387396 67.375 244.4375 C66.29496096 243.51481656 65.21422298 242.59295068 64.1328125 241.671875 C63.33278809 240.98641602 63.33278809 240.98641602 62.51660156 240.28710938 C60.46192845 238.54334945 58.36122094 236.86216339 56.25 235.1875 C52.5636394 232.2585297 48.90687569 229.29608849 45.26074219 226.31738281 C37.60943658 220.07163971 29.88171397 213.95385983 22 208 C21.31776367 207.48453613 20.63552734 206.96907227 19.93261719 206.43798828 C17.7483692 204.78982077 15.56227516 203.14414777 13.375 201.5 C12.68728516 200.98300537 11.99957031 200.46601074 11.29101562 199.93334961 C10.64583984 199.45003174 10.00066406 198.96671387 9.3359375 198.46875 C8.76407715 198.04013672 8.1922168 197.61152344 7.60302734 197.16992188 C4.49069699 194.69833652 4.49069699 194.69833652 0.71484375 194.0703125 C-2.91108557 195.31199765 -5.52737404 197.46349503 -8.4375 199.875 C-9.68728939 200.88437542 -10.93729537 201.89348269 -12.1875 202.90234375 C-12.82171875 203.41909668 -13.4559375 203.93584961 -14.109375 204.46826172 C-17.02292438 206.8287484 -19.98163185 209.1304195 -22.9375 211.4375 C-28.44887776 215.76030085 -33.92208197 220.12951183 -39.38549805 224.51269531 C-44.22478238 228.39116083 -49.09690666 232.22597567 -53.98535156 236.04223633 C-58.70401254 239.73689644 -63.31203586 243.550551 -67.890625 247.41796875 C-70 249 -70 249 -72 249 C-71.55420705 243.76193285 -68.7615086 240.41206188 -65.75 236.3125 C-64.94743774 235.19862915 -64.94743774 235.19862915 -64.12866211 234.06225586 C-62.99623138 232.49259064 -61.85999296 230.92566635 -60.72021484 229.36132812 C-59.06198292 227.08508357 -57.41395401 224.80185939 -55.76953125 222.515625 C-51.97609003 217.24518889 -48.16513311 211.9874982 -44.35449219 206.72949219 C-37.88829209 197.8043687 -31.4520727 188.86165425 -25.13256836 179.83178711 C-21.84707328 175.14994208 -18.45561692 170.5576377 -15 166 C-10.31377937 166.50709104 -7.19365702 168.64096956 -3.5 171.375 C-2.89124023 171.81690674 -2.28248047 172.25881348 -1.65527344 172.71411133 C3.20334963 176.29153935 7.7998862 180.1349383 12.3605957 184.08105469 C17.49110408 188.49606514 22.91495991 192.95747996 29 196 C28.731875 195.13246094 28.46375 194.26492188 28.1875 193.37109375 C25.11471699 183.2531647 22.39716432 173.0483511 19.75 162.8125 C19.57178711 162.12678925 19.39357422 161.44107849 19.20996094 160.73458862 C18.69418179 158.74701635 18.18233049 156.75847669 17.671875 154.76953125 C17.3737793 153.61042236 17.07568359 152.45131348 16.76855469 151.25708008 C16.03906572 148.16555773 15.35618768 145.157494 15 142 C16.44921875 139.98046875 16.44921875 139.98046875 18.6875 138.1875 C19.93273437 137.17236328 19.93273437 137.17236328 21.203125 136.13671875 C25.12507336 133.14048167 29.05243079 130.15510826 33.01953125 127.21875 C41.08316473 121.21594028 48.51029461 114.74073485 56 108 C36.695 107.505 36.695 107.505 17 107 C14.60497797 101.01244494 12.50718884 95.71549092 10.8125 89.625 C8.45669145 81.336044 5.8358137 73.13640314 3.1875 64.9375 C2.98073639 64.29701721 2.77397278 63.65653442 2.5609436 62.99664307 C1.37680156 59.33017275 0.18966962 55.66468022 -1 52 C-2.44211657 56.83949309 -3.61319741 61.67235437 -4.5859375 66.62890625 C-4.88005201 68.09182831 -5.17432819 69.55471788 -5.46875 71.01757812 C-5.92052039 73.27862078 -6.37055108 75.53997795 -6.81738281 77.80200195 C-8.77643335 87.69173213 -11.05570482 97.35267356 -14 107 C-20.75 107.125 -20.75 107.125 -23 106 C-23.53868978 98.76877449 -21.777657 92.47078416 -19.86795044 85.52514648 C-18.91319877 82.04416629 -17.99501295 78.55361398 -17.078125 75.0625 C-16.89459976 74.36483521 -16.71107452 73.66717041 -16.52198792 72.94836426 C-15.01482598 67.16777745 -13.72755834 61.35935774 -12.5625 55.5 C-10.34357372 44.36488084 -7.81418016 33.30963938 -5.25 22.25 C-5.04714386 21.37400146 -4.84428772 20.49800293 -4.63528442 19.59545898 C-1.18536215 4.70626552 -1.18536215 4.70626552 0 0 Z " fill="#EC6B22" transform="translate(168,129)"/>
<path d="M0 0 C1.76167298 0.00079142 3.52346929 0.02903216 5.28442383 0.0793457 C6.67640739 0.08995781 6.67640739 0.08995781 8.09651184 0.1007843 C11.06231088 0.12878753 14.02622616 0.19153663 16.99145508 0.25512695 C19.00119345 0.28020217 21.0109614 0.30301669 23.02075195 0.32348633 C27.94921284 0.37863368 32.87626454 0.46494699 37.80395508 0.56762695 C38.97164112 22.27369266 39.12063022 43.98968936 39.33618164 65.72119141 C39.37615093 69.64430617 39.42036536 73.56736804 39.46460915 77.49043655 C39.74521273 102.5178806 39.84637746 127.53841985 39.80395508 152.56762695 C28.25395508 152.56762695 16.70395508 152.56762695 4.80395508 152.56762695 C4.80395508 141.01762695 4.80395508 129.46762695 4.80395508 117.56762695 C-6.41604492 117.56762695 -17.63604492 117.56762695 -29.19604492 117.56762695 C-29.85604492 119.54762695 -30.51604492 121.52762695 -31.19604492 123.56762695 C-32.2479454 125.8932203 -33.33681466 128.20229932 -34.45385742 130.49731445 C-35.01733887 131.6598877 -35.58082031 132.82246094 -36.16137695 134.02026367 C-36.87406738 135.47964355 -37.58675781 136.93902344 -38.32104492 138.44262695 C-40.58979492 143.10387695 -42.85854492 147.76512695 -45.19604492 152.56762695 C-56.74604492 152.56762695 -68.29604492 152.56762695 -80.19604492 152.56762695 C-79.35311503 148.35297749 -78.49262654 145.79560755 -76.60620117 142.05981445 C-76.07494629 141.00181641 -75.54369141 139.94381836 -74.99633789 138.85375977 C-74.42286621 137.72808594 -73.84939453 136.60241211 -73.25854492 135.44262695 C-72.66444824 134.26539063 -72.07035156 133.0881543 -71.45825195 131.87524414 C-67.86376283 124.76467527 -64.17901104 117.70582162 -60.42871094 110.67651367 C-54.85647061 100.15056157 -49.61454486 89.4521153 -44.32250977 78.78344727 C-40.38946141 70.86780034 -36.39512115 62.99420771 -32.25463867 55.18481445 C-26.91286931 45.1078257 -21.82693478 34.90917897 -16.75854492 24.69262695 C-15.01220002 21.17322197 -13.26311247 17.65519892 -11.51245117 14.13793945 C-11.12182999 13.34839874 -10.7312088 12.55885803 -10.32875061 11.74539185 C-9.6103255 10.30209137 -8.87988806 8.8646774 -8.13487244 7.43492126 C-7.08147379 5.41137298 -7.08147379 5.41137298 -6.01879883 2.5625 C-3.82175755 0.15799635 -3.15943001 0.21046897 0 0 Z M7.80395508 29.56762695 C7.55452148 30.22730469 7.30508789 30.88698242 7.0480957 31.56665039 C0.55355209 48.64251955 -6.52639382 65.36818345 -14.06323242 82.00805664 C-14.40389236 82.7630545 -14.74455231 83.51805237 -15.09553528 84.29592896 C-15.7393763 85.72141701 -16.38658954 87.14538819 -17.03764343 88.56759644 C-18.6560528 91.93241073 -18.6560528 91.93241073 -19.19604492 95.56762695 C-10.61604492 95.56762695 -2.03604492 95.56762695 6.80395508 95.56762695 C7.09089297 88.09699411 7.37642108 80.62633378 7.65844727 73.15551758 C7.7546391 70.61837723 7.85163045 68.08126706 7.94946289 65.54418945 C8.09060694 61.88020504 8.22879696 58.2161188 8.36645508 54.55200195 C8.41020264 53.4327533 8.4539502 52.31350464 8.49902344 51.16033936 C8.7659564 43.95919173 8.85506495 36.77351007 8.80395508 29.56762695 C8.47395508 29.56762695 8.14395508 29.56762695 7.80395508 29.56762695 Z " fill="#008CD1" transform="translate(516.196044921875,166.432373046875)"/>
<path d="M0 0 C-0.62341391 3.5382203 -1.55321845 6.73293028 -2.84765625 10.08203125 C-3.38422852 11.47905273 -3.38422852 11.47905273 -3.93164062 12.90429688 C-4.30482422 13.86400391 -4.67800781 14.82371094 -5.0625 15.8125 C-5.43955078 16.79154297 -5.81660156 17.77058594 -6.20507812 18.77929688 C-7.13315595 21.1876001 -8.06490116 23.59441614 -9 26 C-9.64936523 25.76925781 -10.29873047 25.53851563 -10.96777344 25.30078125 C-21.15458018 21.82173855 -34.95363399 20.49182415 -44.9375 25.1875 C-49.45718726 27.96702893 -52.30406608 30.91219825 -54 36 C-55.03446475 42.5210563 -53.59514451 46.40832036 -49.87426758 51.72558594 C-46.7725123 55.48955001 -43.06371356 58.22517963 -39.125 61.0625 C-30.34189304 67.49801429 -22.01485478 74.12225574 -17 84 C-16.52046875 84.94359375 -16.52046875 84.94359375 -16.03125 85.90625 C-11.83999837 95.99630023 -12.76558365 109.27346864 -16.67578125 119.2890625 C-23.30650426 132.863463 -33.42203351 140.22150489 -47 146 C-66.52167851 152.66119541 -92.82339416 153.25958679 -112 145 C-110.9141314 138.91913584 -109.13696887 133.27920781 -107 127.5 C-106.60820557 126.42202148 -106.60820557 126.42202148 -106.20849609 125.32226562 C-104.24411038 120.12205519 -104.24411038 120.12205519 -102 119 C-100.0484669 119.60210091 -98.11375259 120.25885585 -96.1875 120.9375 C-84.86276542 124.29167835 -69.68564609 125.74112979 -58.81640625 120.27734375 C-54.92256463 117.53909384 -52.52477846 114.57433538 -51 110 C-50.27184862 102.64847166 -51.62151669 98.09288387 -56.171875 92.17578125 C-59.08621529 88.71743077 -62.45894612 86.08053144 -66.0625 83.375 C-69.9425242 80.43125139 -73.64938222 77.55950917 -77 74 C-75.41408344 69.8072331 -72.28632067 67.30915521 -69 64.4375 C-63.21177881 59.72145179 -63.21177881 59.72145179 -60.625 53 C-60.70208333 49.94583333 -60.70208333 49.94583333 -62.75 48.1875 C-66.51324195 46.20134453 -69.98386942 45.85530764 -74.203125 45.68359375 C-75.67265625 45.62075195 -75.67265625 45.62075195 -77.171875 45.55664062 C-78.69554687 45.49766602 -78.69554687 45.49766602 -80.25 45.4375 C-81.28125 45.39431641 -82.3125 45.35113281 -83.375 45.30664062 C-85.9165387 45.20074318 -88.45817196 45.09866557 -91 45 C-91.27997643 32.29218103 -87.6166813 21.97084963 -79 12.375 C-60.46543649 -4.85603377 -22.84747126 -11.42373563 0 0 Z " fill="#008CD1" transform="translate(358,170)"/>
<path d="M0 0 C33.66 0 67.32 0 102 0 C100.35075775 9.07083238 98.23606798 18.05572809 96 27 C79.665 27.495 79.665 27.495 63 28 C62.37544922 30.619375 61.75089844 33.23875 61.10742188 35.9375 C59.00959052 44.73469304 56.9098171 53.53142178 54.80916595 62.32794189 C53.53952333 67.64484669 52.27047258 72.96189108 51.00292969 78.27929688 C45.13625717 102.88828852 39.19136315 127.47040886 33 152 C21.12 152 9.24 152 -3 152 C-1.875 143 -1.875 143 -0.8167572 138.59619141 C-0.57978622 137.60073807 -0.34281525 136.60528473 -0.09866333 135.57966614 C0.15956207 134.51439194 0.41778748 133.44911774 0.68383789 132.3515625 C0.95708389 131.20922653 1.2303299 130.06689056 1.51185608 128.88993835 C2.41135662 125.13396227 3.31696668 121.37948806 4.22265625 117.625 C4.84937195 115.01335476 5.47574649 112.40163005 6.10166931 109.78979492 C7.57855018 103.63038663 9.05983505 97.47204645 10.5427317 91.31408405 C12.23176951 84.29913681 13.91585383 77.28300342 15.59953701 70.26676941 C19.06087426 55.84319238 22.5290374 41.42126407 26 27 C15.44 27 4.88 27 -6 27 C-5 19 -5 19 0 0 Z " fill="#008CD1" transform="translate(376,167)"/>
<path d="M0 0 C6.27 0 12.54 0 19 0 C18.9278125 2.9184375 18.855625 5.836875 18.78125 8.84375 C18.71128763 11.72671433 18.64199069 14.60969395 18.57275391 17.49267578 C18.5249439 19.46892964 18.47646165 21.44516737 18.42724609 23.42138672 C18.1323378 35.28392239 17.92299996 47.13343868 18 59 C18.26514404 58.31413818 18.53028809 57.62827637 18.8034668 56.92163086 C26.21078801 37.80591229 33.9999521 18.87451683 42 0 C47.61 0 53.22 0 59 0 C59.33 19.47 59.66 38.94 60 59 C61.50433594 54.82472656 63.00867188 50.64945312 64.55859375 46.34765625 C65.75685699 43.02684299 66.95568584 39.70623514 68.1548996 36.38576508 C69.42220271 32.87627615 70.68849741 29.36643074 71.95239258 25.85571289 C73.16890519 22.47672943 74.38814066 19.09874022 75.60930061 15.72143364 C76.07558125 14.4303461 76.54086614 13.13889852 77.00515556 11.84709358 C77.65374281 10.04303748 78.30614575 8.24035455 78.95874023 6.43774414 C79.32958237 5.40960098 79.7004245 4.38145782 80.08250427 3.32215881 C81 1 81 1 82 0 C83.4887186 -0.08669432 84.981445 -0.10703494 86.47265625 -0.09765625 C87.37177734 -0.09443359 88.27089844 -0.09121094 89.19726562 -0.08789062 C90.61555664 -0.07532227 90.61555664 -0.07532227 92.0625 -0.0625 C93.4865918 -0.05573242 93.4865918 -0.05573242 94.93945312 -0.04882812 C97.29303369 -0.03700109 99.64647581 -0.01968094 102 0 C100.08617856 5.97732722 97.94279477 11.79539792 95.515625 17.58203125 C95.18282532 18.3827153 94.85002563 19.18339935 94.50714111 20.00834656 C93.42448961 22.61101862 92.33736425 25.21179376 91.25 27.8125 C90.49518738 29.62359153 89.74063342 31.43479087 88.98632812 33.24609375 C87.43445611 36.97149915 85.88082757 40.69616565 84.32617188 44.42041016 C82.06805899 49.83264323 79.8221154 55.24986862 77.578125 60.66796875 C76.54858797 63.15070384 75.51872023 65.63330135 74.48864746 68.11581421 C73.83045016 69.70309856 73.17297733 71.29068352 72.51623535 72.87857056 C71.60690509 75.0762734 70.69448272 77.27266651 69.78125 79.46875 C69.51225891 80.12090988 69.24326782 80.77306976 68.96612549 81.44499207 C67.11411293 85.88588707 67.11411293 85.88588707 66 87 C64.36527118 87.08700342 62.72685945 87.10701063 61.08984375 87.09765625 C60.10048828 87.09443359 59.11113281 87.09121094 58.09179688 87.08789062 C57.05087891 87.07951172 56.00996094 87.07113281 54.9375 87.0625 C53.89271484 87.05798828 52.84792969 87.05347656 51.77148438 87.04882812 C49.1809334 87.03699913 46.59049441 87.02051689 44 87 C43.82268033 83.68798922 43.66054476 80.37536278 43.5 77.0625 C43.45230469 76.17498047 43.40460938 75.28746094 43.35546875 74.37304688 C42.7986806 62.56118395 43 50.86920096 43 39 C36.73 54.84 30.46 70.68 24 87 C16.41 87 8.82 87 1 87 C0.1484696 67.23527854 -0.12763325 47.53330214 -0.0625 27.75 C-0.05687313 25.03515773 -0.05283521 22.32031383 -0.04882812 19.60546875 C-0.03800694 13.07028884 -0.02085961 6.53515525 0 0 Z " fill="#1897D5" transform="translate(85,413)"/>
<path d="M0 0 C5.22864743 -0.07476069 10.45697628 -0.12888763 15.68603516 -0.16479492 C17.46082996 -0.17978093 19.23558837 -0.20017682 21.01025391 -0.22631836 C39.87736013 -0.49706186 39.87736013 -0.49706186 48 3 C48.94875 3.391875 49.8975 3.78375 50.875 4.1875 C55.38919273 8.03784086 57.1028315 13.17559487 57.9375 18.9375 C58.42172362 26.4429661 55.83538695 33.27388387 51 39 C48.10340084 41.17996649 45.10402135 43.12962816 42 45 C42.804375 45.825 43.60875 46.65 44.4375 47.5 C47.60052584 50.74412906 47.91292073 54.64210078 48 59 C47.71886371 61.73902371 47.17395652 64.37989713 46.5625 67.0625 C45.01578636 74.06661371 44.58174872 79.90874361 46 87 C39.07 87 32.14 87 25 87 C21.82196561 80.64393121 24.34115593 71.46221175 25.54296875 64.8046875 C26.69675968 58.24674205 26.69675968 58.24674205 24.875 52.0625 C19.9761248 49.28647072 14.48891229 50 9 50 C6.03 62.21 3.06 74.42 0 87 C-6.6 87 -13.2 87 -20 87 C-18.39648936 77.59907653 -16.29480768 68.34317557 -14.12109375 59.0625 C-13.74501162 57.44877521 -13.36912498 55.83500485 -12.99342346 54.22119141 C-12.21089583 50.86240371 -11.4265877 47.50403874 -10.64086914 44.14599609 C-9.63376588 39.84149467 -8.63032197 35.53615043 -7.62808132 31.23051453 C-6.85456402 27.90860696 -6.07957673 24.5870438 -5.30409431 21.26559448 C-4.93334814 19.67723809 -4.56295766 18.08879864 -4.19293022 16.50027466 C-3.67749519 14.2889083 -3.16018874 12.07798828 -2.64233398 9.8671875 C-2.34858383 8.61019043 -2.05483368 7.35319336 -1.75218201 6.05810547 C-1 3 -1 3 0 0 Z M17 13 C14.27072787 20.53798969 12.57532681 28.14571103 11 36 C22.47243849 36.7592919 22.47243849 36.7592919 33 33 C35.64078495 30.07286488 36.46110129 27.90707718 36.8125 24 C36.90144531 23.154375 36.99039063 22.30875 37.08203125 21.4375 C36.9904696 18.71681097 36.48764018 17.26401804 35 15 C29.44847926 12.07814698 23.09975537 12.82233722 17 13 Z " fill="#1797D5" transform="translate(262,413)"/>
<path d="M0 0 C5.10454178 -0.0746894 10.20875875 -0.12885461 15.3137207 -0.16479492 C17.04685006 -0.17979269 18.77994204 -0.20019772 20.51293945 -0.22631836 C23.01783525 -0.26310203 25.5222252 -0.27981651 28.02734375 -0.29296875 C28.79022202 -0.30845261 29.55310028 -0.32393646 30.33909607 -0.33988953 C37.45696884 -0.34206881 45.41306155 1.37082242 51 6 C57.56873932 16.42091527 56.54082395 26.88264788 54.3125 38.5625 C54.13460937 39.5127002 53.95671875 40.46290039 53.7734375 41.44189453 C47.642804 72.97766186 47.642804 72.97766186 35 83 C25.0016093 89.03441849 12.50983584 87.43946725 1.3125 87.25 C-0.75714418 87.22990479 -2.82680719 87.21165937 -4.89648438 87.1953125 C-9.93146007 87.15155539 -14.96551942 87.0826941 -20 87 C-19.40152783 81.62209638 -18.51809754 76.4263859 -17.25 71.1628418 C-17.075896 70.4252211 -16.90179199 69.6876004 -16.72241211 68.92762756 C-16.15235864 66.51716864 -15.57629181 64.10819311 -15 61.69921875 C-14.599929 60.0139794 -14.20019476 58.32866007 -13.80078125 56.64326477 C-12.96612055 53.1250827 -12.12870694 49.6075721 -11.2890625 46.09057617 C-10.21251429 41.58110114 -9.14088419 37.07047619 -8.07104492 32.55940533 C-7.04911649 28.25142597 -6.02460116 23.94406305 -5 19.63671875 C-4.70730225 18.40458428 -4.70730225 18.40458428 -4.40869141 17.14755821 C-3.85723219 14.82808832 -3.30391641 12.50906969 -2.75 10.19018555 C-2.58685303 9.50288361 -2.42370605 8.81558167 -2.25561523 8.10745239 C-1.59719086 5.35849121 -0.89455959 2.68367878 0 0 Z M16 14 C14.29971803 21.10076947 12.60429102 28.20267956 10.91503143 35.30607986 C10.13046657 38.60452946 9.3442427 41.902565 8.55419922 45.19970703 C7.64574685 48.99133578 6.74456042 52.78467309 5.84375 56.578125 C5.55939087 57.76053772 5.27503174 58.94295044 4.98205566 60.16119385 C4.72178589 61.26203308 4.46151611 62.36287231 4.19335938 63.49707031 C3.96241577 64.46525696 3.73147217 65.4334436 3.49353027 66.43096924 C2.87422808 69.21869413 2.87422808 69.21869413 3 73 C14.46662987 73.629659 14.46662987 73.629659 24.53125 68.81640625 C30.41789918 61.53637468 31.80551436 48.02251499 33.8125 39.0625 C34.03147949 38.1044043 34.25045898 37.14630859 34.47607422 36.15917969 C35.73563735 30.31505034 36.37712446 24.98095825 36 19 C33.80168636 15.96784325 32.55036806 15.18345602 29 14 C26.77181559 13.93062938 24.54165476 13.91542916 22.3125 13.9375 C21.13300781 13.94652344 19.95351563 13.95554687 18.73828125 13.96484375 C17.83464844 13.97644531 16.93101562 13.98804688 16 14 Z " fill="#1797D5" transform="translate(338,413)"/>
<path d="M0 0 C8.42829616 5.86763824 13.4377436 13.18591371 16.62890625 22.91796875 C18.46334589 33.21014061 17.41640758 42.9852797 12 52 C6.40089815 59.73260875 0.07600031 64.97466656 -9 68 C-19.91869183 68.93413773 -28.12816067 67.39747146 -36.75 60.5 C-45.22566546 52.41436516 -48.55762069 41.79554153 -49.1328125 30.359375 C-48.89520901 21.33044226 -44.86280151 12.44965021 -38.96875 5.66015625 C-28.76564843 -3.62074191 -12.50687189 -7.08193109 0 0 Z " fill="#008CD1" transform="translate(135,79)"/>
<path d="M0 0 C5.05777262 4.06820841 7.46533445 8.86174568 8.5390625 15.1640625 C9.00988442 34.12534526 3.99083076 60.68987515 -7.8125 76.125 C-13.62749937 82.06242041 -20.94959943 85.06453132 -29.1875 85.25 C-36.62519277 85.15083076 -44.42304341 83.04581787 -50 78 C-55.45085702 70.30066446 -54.97562586 61.20680701 -53.57226562 52.27880859 C-46.11219629 10.32631831 -46.11219629 10.32631831 -34.46875 0.96484375 C-24.09533073 -5.48803324 -10.59613715 -6.91347115 0 0 Z M-23.75537109 12.7902832 C-26.62375583 17.88281954 -27.72833781 23.7410328 -29.125 29.375 C-29.4732741 30.73536416 -29.82223494 32.09555268 -30.171875 33.45556641 C-34.88188655 50.99589052 -34.88188655 50.99589052 -36 69 C-33.98257918 71.26051003 -33.98257918 71.26051003 -31 72 C-27.76443801 71.78150791 -27.76443801 71.78150791 -25 71 C-25 70.34 -25 69.68 -25 69 C-24.34 69 -23.68 69 -23 69 C-19.5706167 61.21276874 -17.37608721 53.31919834 -15.375 45.0625 C-15.0759375 43.86431641 -14.776875 42.66613281 -14.46875 41.43164062 C-9.51258977 25.66914001 -9.51258977 25.66914001 -11.0625 10 C-16.22186842 7.33710017 -20.25710113 8.2943093 -23.75537109 12.7902832 Z " fill="#1797D5" transform="translate(560,417)"/>
<path d="M0 0 C8.25 0 16.5 0 25 0 C25.89894209 10.37938181 26.31157263 20.71325036 26.5625 31.125 C26.58367889 31.95951691 26.60485779 32.79403381 26.62667847 33.65383911 C27.07269784 51.43698843 27.09949458 69.21257982 27 87 C20.73 87 14.46 87 8 87 C8 79.74 8 72.48 8 65 C1.73 65 -4.54 65 -11 65 C-11.99 67.97 -12.98 70.94 -14 74 C-15.89317664 78.38977453 -17.95278361 82.67809874 -20 87 C-26.6 87 -33.2 87 -40 87 C-39.11332337 82.56661685 -38.04801573 79.70366692 -36.078125 75.71484375 C-35.78196289 75.11003677 -35.48580078 74.5052298 -35.18066406 73.88209534 C-34.54199581 72.57874461 -33.90083925 71.27661082 -33.25744629 69.97558594 C-31.53383324 66.48867894 -29.82987195 62.99219244 -28.125 59.49609375 C-27.77705383 58.78347382 -27.42910767 58.07085388 -27.07061768 57.3366394 C-23.70704827 50.43198051 -20.46541552 43.47481255 -17.25 36.5 C-11.61101292 24.27828774 -5.83213515 12.13084112 0 0 Z M8 18 C6.2867268 22.37659283 4.57784507 26.75486459 2.87304688 31.13476562 C2.2922269 32.62514709 1.71020032 34.11505891 1.12695312 35.60449219 C0.28980472 37.74292231 -0.54301894 39.88299257 -1.375 42.0234375 C-1.63748535 42.69120209 -1.8999707 43.35896667 -2.17041016 44.04696655 C-3.54380242 47.42411908 -3.54380242 47.42411908 -4 51 C-0.04 51 3.92 51 8 51 C9.33079002 40.02098237 9.09495706 29.0398533 9 18 C8.67 18 8.34 18 8 18 Z " fill="#1897D5" transform="translate(40,413)"/>
<path d="M0 0 C8.25 0 16.5 0 25 0 C25.26480141 7.94721153 25.5262482 15.89451395 25.78230286 23.84201145 C25.90141199 27.53512298 26.02180968 31.22818168 26.14550781 34.92114258 C26.72624927 52.28882654 27.11544001 69.61906293 27 87 C20.4 87 13.8 87 7 87 C7.33 79.74 7.66 72.48 8 65 C1.73 65.33 -4.54 65.66 -11 66 C-13.97 72.93 -16.94 79.86 -20 87 C-26.93 87 -33.86 87 -41 87 C-38.75048233 80.25144698 -38.75048233 80.25144698 -37.3269043 77.36669922 C-37.00816849 76.71573776 -36.68943268 76.06477631 -36.36103821 75.39408875 C-36.01888779 74.70458633 -35.67673737 74.01508392 -35.32421875 73.3046875 C-34.96261154 72.56753006 -34.60100433 71.83037262 -34.22843933 71.07087708 C-33.45331584 69.49088956 -32.67666437 67.91165088 -31.89862061 66.33309937 C-29.84642681 62.16795161 -27.80679958 57.99668356 -25.76953125 53.82421875 C-25.36138184 52.98830704 -24.95323242 52.15239532 -24.53271484 51.29115295 C-20.8845836 43.79993157 -17.35740964 36.2569043 -13.875 28.6875 C-9.42898699 19.0245927 -4.83257185 9.47563108 0 0 Z M8 18 C6.14639021 22.53808271 4.29503581 27.0770762 2.44580078 31.61694336 C1.81589263 33.16244593 1.18535992 34.70769408 0.55419922 36.25268555 C-0.35091359 38.4685779 -1.25380424 40.68536411 -2.15625 42.90234375 C-2.44060913 43.5971434 -2.72496826 44.29194305 -3.01794434 45.00779724 C-4.40281179 47.91364409 -4.40281179 47.91364409 -5 51 C-0.71 51 3.58 51 8 51 C8.614687 39.99051677 9.18115526 29.03034265 9 18 C8.67 18 8.34 18 8 18 Z " fill="#1897D5" transform="translate(209,413)"/>
<path d="M0 0 C1.19931152 0.01244751 1.19931152 0.01244751 2.42285156 0.02514648 C9.41783134 0.22563499 14.78932024 1.24263014 20.015625 6.15625 C25.48127116 12.18378502 25.62569932 17.74395489 25.45703125 25.6953125 C25.02811232 31.65044774 23.61196226 35.21906912 19.2109375 39.24609375 C13.88698037 43.4375 13.88698037 43.4375 11.1875 43.4375 C11.80238281 44.09105469 11.80238281 44.09105469 12.4296875 44.7578125 C12.96851563 45.35335937 13.50734375 45.94890625 14.0625 46.5625 C14.59617187 47.14257812 15.12984375 47.72265625 15.6796875 48.3203125 C20.34916861 54.87694142 19.33015656 61.88122277 18.1875 69.4375 C17.09805073 73.51660074 15.54093745 76.90734383 13.1875 80.4375 C12.5275 80.4375 11.8675 80.4375 11.1875 80.4375 C11.1875 81.0975 11.1875 81.7575 11.1875 82.4375 C9.8671875 83.65625 9.8671875 83.65625 8.0625 84.9375 C7.48242188 85.3603125 6.90234375 85.783125 6.3046875 86.21875 C-2.09660893 91.05492064 -13.76000838 90.96545744 -23 88.6328125 C-29.18447389 85.89882252 -33.2017415 81.67056551 -35.8125 75.4375 C-37.51100938 68.28748745 -36.63900438 63.74351753 -34.8125 56.4375 C-28.8725 56.4375 -22.9325 56.4375 -16.8125 56.4375 C-16.9375 64.25 -16.9375 64.25 -16.99267578 66.69848633 C-17.02226568 70.50269761 -16.96964554 72.20178169 -14.8125 75.4375 C-11.44001384 76.10508785 -11.44001384 76.10508785 -7.8125 75.4375 C-4.33604128 72.71679318 -2.55441146 70.74800559 -1.8125 66.4375 C-1.62057929 64.08784212 -1.50192867 61.73160235 -1.4375 59.375 C-1.38851562 58.14652344 -1.33953125 56.91804688 -1.2890625 55.65234375 C-1.47715174 52.3092213 -1.47715174 52.3092213 -4.03515625 50.546875 C-6.69027208 49.4863224 -8.78760009 48.96174626 -11.625 48.75 C-12.41519531 48.68425781 -13.20539062 48.61851562 -14.01953125 48.55078125 C-14.61121094 48.51339844 -15.20289063 48.47601563 -15.8125 48.4375 C-15.67101011 46.8329444 -15.52414314 45.22886233 -15.375 43.625 C-15.29378906 42.73167969 -15.21257813 41.83835937 -15.12890625 40.91796875 C-14.8125 38.4375 -14.8125 38.4375 -13.8125 35.4375 C-13.08804688 35.40011719 -12.36359375 35.36273438 -11.6171875 35.32421875 C-2.31976333 34.70125027 -2.31976333 34.70125027 5.0625 29.375 C6.68412716 25.14075131 6.79894393 20.92406912 6.1875 16.4375 C4.25744771 14.08151371 4.25744771 14.08151371 0.8125 14.125 C-2.66486627 14.24538926 -2.66486627 14.24538926 -5.125 15.375 C-7.83482347 18.68700646 -8.08551235 22.257321 -8.8125 26.4375 C-14.7525 26.4375 -20.6925 26.4375 -26.8125 26.4375 C-26.8125 18.90561459 -26.08765674 14.04714083 -20.9765625 8.4140625 C-14.42098767 2.46129915 -8.8268259 -0.1169177 0 0 Z " fill="#1897D5" transform="translate(669.8125,412.5625)"/>
<path d="M0 0 C0.70817871 0.00418945 1.41635742 0.00837891 2.14599609 0.01269531 C9.96452007 0.18199761 16.05746618 2.21025565 22.125 7.3125 C26.41690562 12.69737537 26.73249027 18.49181859 26.515625 25.19140625 C25.96556008 29.58642494 24.54222311 32.657187 22.125 36.3125 C21.568125 37.323125 21.01125 38.33375 20.4375 39.375 C17.20640566 43.47936309 13.30185178 46.21392769 9.125 49.3125 C-5.04838221 58.88503791 -5.04838221 58.88503791 -15.875 71.3125 C-0.035 71.8075 -0.035 71.8075 16.125 72.3125 C14.125 83.3125 14.125 83.3125 13.125 87.3125 C-4.365 87.3125 -21.855 87.3125 -39.875 87.3125 C-39.875 74.34064171 -34.94850646 64.80973947 -26.1875 55.4375 C-25.424375 54.73625 -24.66125 54.035 -23.875 53.3125 C-23.153125 52.549375 -22.43125 51.78625 -21.6875 51 C-19.875 49.3125 -19.875 49.3125 -17.875 49.3125 C-17.875 48.6525 -17.875 47.9925 -17.875 47.3125 C-16.40966797 46.0949707 -16.40966797 46.0949707 -14.3671875 44.73828125 C-13.25730469 43.98321289 -13.25730469 43.98321289 -12.125 43.21289062 C-10.56688597 42.17115814 -9.00704396 41.13200459 -7.4453125 40.09570312 C-1.9907528 36.37625768 3.11463927 32.33322145 6.125 26.3125 C6.27101706 24.65015189 6.34589834 22.98099493 6.375 21.3125 C6.41367187 19.9821875 6.41367187 19.9821875 6.453125 18.625 C6.34484375 17.861875 6.2365625 17.09875 6.125 16.3125 C2.43782562 13.85438375 0.48154296 14.00131836 -3.875 14.3125 C-7.57805325 16.78120217 -7.75868502 18.08645044 -8.875 22.3125 C-9.205 24.6225 -9.535 26.9325 -9.875 29.3125 C-16.145 29.3125 -22.415 29.3125 -28.875 29.3125 C-28.55761308 21.06044001 -27.05720447 15.42687735 -22.875 8.3125 C-22.215 8.3125 -21.555 8.3125 -20.875 8.3125 C-20.875 7.6525 -20.875 6.9925 -20.875 6.3125 C-13.94851104 2.15660662 -8.22290098 -0.06614115 0 0 Z " fill="#1596D5" transform="translate(605.875,412.6875)"/>
<path d="M0 0 C4.84475006 3.81395217 7.46806987 8.14675007 8.3203125 14.3203125 C8.69536418 22.29641159 6.28586584 29.92333533 1 36 C0.34 36 -0.32 36 -1 36 C-1.33 36.99 -1.66 37.98 -2 39 C-4.046875 40.91015625 -4.046875 40.91015625 -6.75 43.0625 C-7.74128906 43.8565625 -8.73257813 44.650625 -9.75390625 45.46875 C-11.93237472 47.17912329 -14.12946566 48.86235981 -16.33984375 50.53125 C-27.05905406 57.9971833 -27.05905406 57.9971833 -35 68 C-24.11 68 -13.22 68 -2 68 C-5 82 -5 82 -6 83 C-7.65738443 83.09346915 -9.31874644 83.11744977 -10.97875977 83.11352539 C-12.03978409 83.11344986 -13.10080841 83.11337433 -14.19398499 83.11329651 C-15.92520851 83.10555458 -15.92520851 83.10555458 -17.69140625 83.09765625 C-19.4538694 83.09553383 -19.4538694 83.09553383 -21.25193787 83.09336853 C-25.02215064 83.08774992 -28.79230504 83.07519426 -32.5625 83.0625 C-35.11132727 83.0574874 -37.66015547 83.05292408 -40.20898438 83.04882812 C-46.47267633 83.03777444 -52.73633399 83.02101821 -59 83 C-58.70744446 81.09678362 -58.40790024 79.19464078 -58.10546875 77.29296875 C-57.93942139 76.23360107 -57.77337402 75.1742334 -57.60229492 74.08276367 C-54.25880268 56.96955876 -38.9614853 44.66212741 -25.296875 35.32421875 C-19.67083222 31.43200351 -14.4104192 27.63205734 -12 21 C-11.41634423 17.43904403 -11.32302844 14.2742994 -13.0625 11 C-16.17909511 9.39143478 -18.56262469 9.57786619 -22 10 C-24.5368109 11.1982517 -24.5368109 11.1982517 -26 14 C-26.92289854 17.66522564 -27.463754 21.24627803 -28 25 C-34.27 25 -40.54 25 -47 25 C-47 17.86908828 -46.74755082 14.97502317 -44 9 C-43.75636719 8.37867188 -43.51273437 7.75734375 -43.26171875 7.1171875 C-40.59861528 1.28612682 -35.77994821 -0.75841752 -30 -3 C-20.73968819 -6.0933382 -8.29418799 -4.99610536 0 0 Z " fill="#1997D5" transform="translate(496,417)"/>
<path d="M0 0 C4.55389092 3.06169916 6.29287729 6.26497303 8.1875 11.25 C14.14329485 25.72134926 23.46123982 38.32234959 32.20288086 51.22460938 C48.52630848 75.44712391 58.20735886 99.96346094 53.4140625 129.62597656 C51.71906413 138.17159332 49.75717793 146.7284662 47 155 C44.4375 156.1875 44.4375 156.1875 42 157 C42.02356567 155.94425781 42.02356567 155.94425781 42.04760742 154.8671875 C42.64061357 124.20101313 35.46564393 102.54700249 19.9375 76.375 C4.70487381 50.6923572 -0.43620642 29.96738077 0 0 Z " fill="#EA681E" transform="translate(31,185)"/>
<path d="M0 0 C3.96 0 7.92 0 12 0 C11.67 12.87 11.34 25.74 11 39 C14.77349895 29.15990778 14.77349895 29.15990778 18.53808594 19.31640625 C21.07205769 12.71855711 23.65329453 6.23851893 27 0 C31.62 0 36.24 0 41 0 C41.33 12.21 41.66 24.42 42 37 C42.92683594 34.49664062 43.85367188 31.99328125 44.80859375 29.4140625 C45.70521319 26.99469077 46.60222132 24.5754635 47.49926758 22.15625 C48.1233727 20.47248161 48.74707246 18.78856291 49.37036133 17.10449219 C50.26537722 14.68645402 51.16184073 12.26895689 52.05859375 9.8515625 C52.3377916 9.0963028 52.61698944 8.34104309 52.90464783 7.56289673 C54.88612829 2.22774341 54.88612829 2.22774341 56 0 C59.96 0 63.92 0 68 0 C65.98552528 6.27761075 63.69813365 12.32867127 61.09375 18.3828125 C60.7277771 19.24131805 60.3618042 20.09982361 59.98474121 20.98434448 C58.82646737 23.6993228 57.66332618 26.41218328 56.5 29.125 C55.71972846 30.95168472 54.93977781 32.77850653 54.16015625 34.60546875 C52.11085428 39.40539981 50.05655392 44.20317236 48 49 C47.41860486 50.35660167 46.83722331 51.71320917 46.25585938 53.06982422 C45.84142578 54.03678223 45.42699219 55.00374023 45 56 C40.38 56 35.76 56 31 56 C30.67 43.46 30.34 30.92 30 18 C28.92878906 20.65933594 27.85757812 23.31867187 26.75390625 26.05859375 C25.71863011 28.62370173 24.68247856 31.18845442 23.64624023 33.75317383 C22.92461909 35.54056389 22.20391355 37.32832388 21.48413086 39.11645508 C20.45144316 41.68147223 19.41550717 44.24515599 18.37890625 46.80859375 C18.05596085 47.6127623 17.73301544 48.41693085 17.40028381 49.24546814 C15.11387171 54.88612829 15.11387171 54.88612829 14 56 C9.38 56 4.76 56 0 56 C0 37.52 0 19.04 0 0 Z " fill="#FDFBF9" transform="translate(360,24)"/>
<path d="M0 0 C3.33316277 -0.08811914 6.66602047 -0.14076197 10 -0.1875 C10.93457031 -0.21263672 11.86914062 -0.23777344 12.83203125 -0.26367188 C18.95942029 -0.32794519 23.44002189 0.36731589 29 3 C33.20231211 7.20231211 34.13970173 10.89421079 34.3125 16.6875 C34.17961732 29.07880987 30.71128191 42.63060399 23.0625 52.5 C18.65671493 55.70420733 14.054208 56.24806147 8.7265625 56.1953125 C6.99599609 56.18564453 6.99599609 56.18564453 5.23046875 56.17578125 C4.04066406 56.15902344 2.85085938 56.14226562 1.625 56.125 C0.41199219 56.11597656 -0.80101562 56.10695312 -2.05078125 56.09765625 C-5.03405773 56.07416588 -8.01692594 56.04131682 -11 56 C-9.24248674 44.33111087 -6.76034252 32.80261385 -4.375 21.25 C-3.95031687 19.18493777 -3.52583601 17.11983393 -3.1015625 15.0546875 C-2.07004062 10.0359754 -1.03577994 5.01783496 0 0 Z " fill="#FDFAF9" transform="translate(522,24)"/>
<path d="M0 0 C4.95 0 9.9 0 15 0 C16.98 10.23 18.96 20.46 21 31 C24.465 15.655 24.465 15.655 28 0 C32.62 0 37.24 0 42 0 C39.25959345 13.27207241 36.32130413 26.48835289 33.25 39.6875 C32.8344607 41.47977721 32.41909544 43.27209478 32.00390625 45.06445312 C31.00459705 49.37676702 30.00297911 53.68853826 29 58 C23.72 58 18.44 58 13 58 C11.35 48.1 9.7 38.2 8 28 C7.67 28 7.34 28 7 28 C6.823479 28.83772949 6.64695801 29.67545898 6.46508789 30.53857422 C5.80940278 33.64386094 5.15126604 36.74861488 4.49145508 39.85302734 C4.20628898 41.1972195 3.92210356 42.54162009 3.63891602 43.88623047 C3.23190534 45.81792736 2.82108442 47.74882019 2.41015625 49.6796875 C2.04096069 51.42354736 2.04096069 51.42354736 1.66430664 53.20263672 C1 56 1 56 0 58 C-4.29 58 -8.58 58 -13 58 C-12.32030828 51.26647377 -10.88343267 44.84979948 -9.27734375 38.28125 C-9.01240616 37.18276733 -8.74746857 36.08428467 -8.47450256 34.95251465 C-7.6329375 31.46733572 -6.78531341 27.98366362 -5.9375 24.5 C-5.36353065 22.12770131 -4.78995868 19.75530643 -4.21679688 17.3828125 C-2.81579521 11.58741823 -1.40936013 5.79336702 0 0 Z " fill="#ED7D3F" transform="translate(641,335)"/>
<path d="M0 0 C4.16642697 -0.11703447 8.3324259 -0.18753101 12.5 -0.25 C13.67304688 -0.28351563 14.84609375 -0.31703125 16.0546875 -0.3515625 C23.22102281 -0.43208312 27.93975387 0.07059131 34 4 C37.28448331 7.81423868 37.8981959 12.08028026 38 17 C37.51957706 21.22196397 36.68558151 25.34364014 35.8125 29.5 C35.60302734 30.58925781 35.39355469 31.67851562 35.17773438 32.80078125 C33.37377558 41.65463245 30.79119554 50.56347689 23 56 C18.47471311 57.80878721 14.70856231 58.23682532 9.8515625 58.1953125 C9.19417084 58.1924826 8.53677917 58.18965271 7.85946655 58.18673706 C5.78111767 58.17563447 3.70321634 58.15054986 1.625 58.125 C0.20703752 58.11495731 -1.21093179 58.10583373 -2.62890625 58.09765625 C-6.08608037 58.07572805 -9.54299642 58.04126818 -13 58 C-12.38559905 51.20600981 -11.14984417 44.78529707 -9.53125 38.1640625 C-9.29088013 37.16289398 -9.05051025 36.16172546 -8.80285645 35.13021851 C-8.04035221 31.96055362 -7.27013344 28.79281877 -6.5 25.625 C-5.98259951 23.47537431 -5.46566789 21.3256357 -4.94921875 19.17578125 C-4.45615198 17.13010638 -3.96267689 15.08452987 -3.46875 13.0390625 C-3.23643677 12.076586 -3.00412354 11.1141095 -2.76477051 10.12246704 C-2.54784546 9.23078827 -2.33092041 8.3391095 -2.10742188 7.42041016 C-1.91724487 6.63703278 -1.72706787 5.8536554 -1.53112793 5.04653931 C-1.08953802 3.34500742 -0.55589679 1.66769037 0 0 Z M11 10 C9.85494075 14.76752727 8.71578024 19.53641103 7.58203125 24.30664062 C7.19562455 25.92877077 6.80761687 27.55052042 6.41796875 29.171875 C5.85774807 31.50422231 5.3033243 33.8378833 4.75 36.171875 C4.48751465 37.25647003 4.48751465 37.25647003 4.21972656 38.36297607 C3.43253625 41.70705002 3 44.53913364 3 48 C4.43739513 48.02712066 5.87493863 48.04645067 7.3125 48.0625 C8.11300781 48.07410156 8.91351563 48.08570313 9.73828125 48.09765625 C12.16861334 48.09657855 12.16861334 48.09657855 15 47 C15 46.34 15 45.68 15 45 C15.66 45 16.32 45 17 45 C19.38791523 38.49080975 21.38534232 31.96926478 22.8125 25.1875 C23.19341797 23.38345703 23.19341797 23.38345703 23.58203125 21.54296875 C24.02835587 17.75963767 23.83367388 14.71194459 23 11 C20.47524538 9.73762269 18.68799534 9.90143596 15.875 9.9375 C14.96492188 9.94652344 14.05484375 9.95554687 13.1171875 9.96484375 C12.06917969 9.98224609 12.06917969 9.98224609 11 10 Z " fill="#ED7C3C" transform="translate(313,335)"/>
<path d="M0 0 C3.64133793 3.03583071 5.74096791 6.51583983 6.23828125 11.28515625 C6.6229574 25.68014265 3.26640304 40.73619031 -5.375 52.4375 C-10.60145294 57.53951358 -14.81391921 58.20156944 -21.9375 58.4375 C-27.76252676 58.28893396 -32.4466086 57.83262844 -37 54 C-41.1095876 49.06849488 -41.61361148 44.85481209 -41.390625 38.515625 C-39.91195704 25.20761334 -36.83347794 8.87536405 -26 0 C-17.6034669 -4.4137528 -8.51578171 -3.89045865 0 0 Z M-20 10 C-21.02811204 12.51348637 -21.83716947 14.84054414 -22.5625 17.4375 C-22.77156982 18.14962646 -22.98063965 18.86175293 -23.19604492 19.59545898 C-23.81433431 21.72591847 -24.40988344 23.86158792 -25 26 C-25.32484375 27.14726562 -25.6496875 28.29453125 -25.984375 29.4765625 C-27.39923509 34.74891848 -28.58104448 39.53818193 -28 45 C-26.39073867 48.15936492 -26.39073867 48.15936492 -23.94140625 48.46875 C-23.15636719 48.4790625 -22.37132812 48.489375 -21.5625 48.5 C-20.38880859 48.54640625 -20.38880859 48.54640625 -19.19140625 48.59375 C-16.78623915 48.18179344 -16.78623915 48.18179344 -15.33984375 45.80859375 C-10.2183205 35.07280595 -6.31514243 21.94857888 -7 10 C-9.08561402 7.60540613 -10.3780374 7.09329439 -13.5 6.625 C-16.6394076 7.09591114 -17.71360085 7.78491155 -20 10 Z " fill="#ED7C3C" transform="translate(619,336)"/>
<path d="M0 0 C4.62 0 9.24 0 14 0 C13.7326001 1.09876465 13.4652002 2.1975293 13.18969727 3.32958984 C12.18960935 7.44678869 11.19839945 11.56608403 10.2097168 15.68603516 C9.7824099 17.46134943 9.35276854 19.23610362 8.9206543 21.01025391 C8.29626291 23.57567239 7.68058392 26.14305709 7.06640625 28.7109375 C6.87470352 29.49052826 6.68300079 30.27011902 6.48548889 31.07333374 C5.15082448 36.70534967 4.48407109 42.23130031 4 48 C7.63 48.33 11.26 48.66 15 49 C18.39295007 38.41618479 20.74080706 27.58128502 23.24414062 16.76147461 C23.83950203 14.19315164 24.43911537 11.62584868 25.0390625 9.05859375 C25.22135406 8.26392197 25.40364563 7.46925018 25.59146118 6.65049744 C26.88705059 1.11294941 26.88705059 1.11294941 28 0 C30.18639453 -0.07258946 32.37500389 -0.08373783 34.5625 -0.0625 C36.35880859 -0.04896484 36.35880859 -0.04896484 38.19140625 -0.03515625 C39.11824219 -0.02355469 40.04507813 -0.01195312 41 0 C39.64711091 9.44810237 37.53123972 18.65135566 35.22363281 27.90161133 C34.62236635 30.32310657 34.03759438 32.74823132 33.453125 35.17382812 C33.06610471 36.73722719 32.67811775 38.30038735 32.2890625 39.86328125 C32.11911774 40.57696365 31.94917297 41.29064606 31.77407837 42.0259552 C30.40477112 47.40661468 28.51596618 52.85955116 24.16796875 56.55859375 C16.29574759 60.05218302 7.48120672 60.33286174 -0.859375 58.3046875 C-4.56858885 56.86221545 -6.5885958 55.52360534 -9.0625 52.375 C-12.09240899 41.46732764 -8.26002118 30.61710148 -5.5625 20 C-5.13635871 18.28019813 -4.71121998 16.56014752 -4.28710938 14.83984375 C-1.19315323 2.38630646 -1.19315323 2.38630646 0 0 Z " fill="#ED7D3E" transform="translate(367,335)"/>
<path d="M0 0 C3.31219232 -0.117791 6.62383492 -0.18777155 9.9375 -0.25 C11.32678711 -0.30027344 11.32678711 -0.30027344 12.74414062 -0.3515625 C19.18002698 -0.44189073 24.52395026 0.42411166 30 4 C32.8568285 8.28524275 32.60259734 11.97091606 32 17 C30.65044679 21.34774981 29.01156845 24.22928118 25.375 27 C23 28 23 28 21 28 C21 28.66 21 29.32 21 30 C21.639375 30.309375 22.27875 30.61875 22.9375 30.9375 C25 32 25 32 26 33 C26.71442689 40.77562289 25.30041772 48.36004589 24 56 C20.04 56 16.08 56 12 56 C12.08378906 54.49566406 12.16757812 52.99132812 12.25390625 51.44140625 C12.3570442 49.4817852 12.45989395 47.52214897 12.5625 45.5625 C12.61857422 44.56927734 12.67464844 43.57605469 12.73242188 42.55273438 C12.80493164 41.13637695 12.80493164 41.13637695 12.87890625 39.69140625 C12.94960327 38.37958374 12.94960327 38.37958374 13.02172852 37.04125977 C13.23806957 35.00488949 13.23806957 35.00488949 12 34 C10.65252916 33.76924918 9.29622435 33.58846937 7.9375 33.4375 C6.638125 33.293125 5.33875 33.14875 4 33 C3.96261719 33.57105469 3.92523438 34.14210937 3.88671875 34.73046875 C3.29680315 42.00609452 1.76303958 48.92566508 0 56 C-3.96 56 -7.92 56 -12 56 C-10.41075444 45.66556164 -8.26149492 35.47869376 -6.05883789 25.26025391 C-5.43158798 22.34754685 -4.81027528 19.43361434 -4.18945312 16.51953125 C-3.79201758 14.66659136 -3.39424372 12.81372401 -2.99609375 10.9609375 C-2.81066513 10.09020599 -2.62523651 9.21947449 -2.43418884 8.32235718 C-1.11500094 2.23000188 -1.11500094 2.23000188 0 0 Z " fill="#FDFAF8" transform="translate(479,24)"/>
<path d="M0 0 C5.94 0 11.88 0 18 0 C19.19148936 40.06382979 19.19148936 40.06382979 19 58 C14.38 58 9.76 58 5 58 C5 53.38 5 48.76 5 44 C1.04 44 -2.92 44 -7 44 C-7.45375 45.381875 -7.9075 46.76375 -8.375 48.1875 C-9.47235693 51.52945067 -10.68883471 54.72208679 -12 58 C-16.62 58 -21.24 58 -26 58 C-25.09996743 53.49983716 -23.97706194 50.56091572 -21.97265625 46.50390625 C-21.51536133 45.57052429 -21.51536133 45.57052429 -21.04882812 44.61828613 C-20.39595525 43.28651471 -19.74061921 41.95594844 -19.08303833 40.62649536 C-17.36558997 37.1530291 -15.66699939 33.67038387 -13.96875 30.1875 C-13.62981216 29.49310318 -13.29087433 28.79870636 -12.94166565 28.08326721 C-8.42994283 18.81280984 -4.19890004 9.41541585 0 0 Z M5 15 C3.9936345 17.43504509 2.99473587 19.87270864 2 22.3125 C1.71382813 23.00279297 1.42765625 23.69308594 1.1328125 24.40429688 C-0.08910744 27.41545674 -1 29.71886984 -1 33 C1.31 33 3.62 33 6 33 C6 27.06 6 21.12 6 15 C5.67 15 5.34 15 5 15 Z " fill="#EC7E3F" transform="translate(481,335)"/>
<path d="M0 0 C5.28 0 10.56 0 16 0 C18.10146406 18.62754066 19.23149397 37.24898877 19 56 C15.04 56 11.08 56 7 56 C7 52.04 7 48.08 7 44 C-0.92 44.495 -0.92 44.495 -9 45 C-10.65 48.63 -12.3 52.26 -14 56 C-18.29 56 -22.58 56 -27 56 C-21.59360049 44.42265963 -16.00292163 32.95313356 -10.25976562 21.5390625 C-6.68687827 14.42109236 -3.26870265 7.26378366 0 0 Z " fill="#FDF9F7" transform="translate(329,24)"/>
<path d="M0 0 C5.28 0 10.56 0 16 0 C17.6213715 18.66938445 18.50789422 37.27407989 19 56 C15.04 56 11.08 56 7 56 C7 52.04 7 48.08 7 44 C-1.09920357 43.51291883 -1.09920357 43.51291883 -9 45 C-12.34663834 48.51015488 -13.28899598 51.34820782 -15 56 C-18.96 56 -22.92 56 -27 56 C-25.75859277 52.06440223 -24.33036273 48.41496423 -22.47802734 44.72900391 C-21.97765961 43.72841949 -21.47729187 42.72783508 -20.96176147 41.69692993 C-20.42523956 40.63420868 -19.88871765 39.57148743 -19.3359375 38.4765625 C-18.50783066 36.82459366 -18.50783066 36.82459366 -17.66299438 35.13925171 C-15.90408506 31.63260103 -14.13962385 28.12877791 -12.375 24.625 C-11.17886846 22.24389985 -9.98400377 19.86216676 -8.7890625 17.48046875 C-5.86358169 11.6515227 -2.93311952 5.82510575 0 0 Z " fill="#FDFAF8" transform="translate(443,24)"/>
<path d="M0 0 C2.9688844 2.57490921 4.74778801 5.24336402 6 9 C6.13281695 12.67106043 6.04323297 16.32519714 6 20 C1.38 20 -3.24 20 -8 20 C-8.33 16.37 -8.66 12.74 -9 9 C-12.73567172 8.23588533 -15.34811918 7.92825237 -19 9 C-25.63429282 28.26095825 -25.63429282 28.26095825 -25 47 C-19.62304005 47.63461292 -19.62304005 47.63461292 -15.125 45.375 C-13.84944117 42.68215357 -12.94225645 39.82676936 -12 37 C-7.71 37 -3.42 37 1 37 C0.33683476 45.12377416 -2.73752899 50.65398816 -9 56 C-15.49146321 59.23438289 -23.60578816 59.12378771 -30.55078125 57.34765625 C-34.56932616 55.58433993 -37.46412883 53.22038752 -39.37109375 49.1328125 C-41.8223406 40.81988841 -39.6494998 32.45898708 -37.75 24.25 C-37.54576416 23.36296387 -37.34152832 22.47592773 -37.13110352 21.56201172 C-34.8051006 12.17897389 -31.63727621 4.94609335 -23.5 -0.75 C-15.99325483 -4.50337259 -7.37656517 -3.72972396 0 0 Z " fill="#EC7E40" transform="translate(451,336)"/>
<path d="M0 0 C10.89 0 21.78 0 33 0 C32.34 3.63 31.68 7.26 31 11 C24.4 11 17.8 11 11 11 C10.34 14.3 9.68 17.6 9 21 C14.94 21.33 20.88 21.66 27 22 C26 30 26 30 25 33 C18.73 33.33 12.46 33.66 6 34 C5.01 38.29 4.02 42.58 3 47 C9.6 47 16.2 47 23 47 C22 55 22 55 21 58 C9.78 58 -1.44 58 -13 58 C-11.87486542 47.87378879 -11.87486542 47.87378879 -10.89257812 43.69555664 C-10.67565308 42.76171646 -10.45872803 41.82787628 -10.23522949 40.86573792 C-10.00291626 39.89039597 -9.77060303 38.91505402 -9.53125 37.91015625 C-9.17069519 36.3715519 -9.17069519 36.3715519 -8.80285645 34.80186462 C-8.29765493 32.65077095 -7.7899265 30.50026932 -7.27978516 28.3503418 C-6.4968943 25.04940531 -5.72244142 21.74657251 -4.94921875 18.44335938 C-4.45621953 16.34884285 -3.96274688 14.2544377 -3.46875 12.16015625 C-3.23643677 11.17064468 -3.00412354 10.18113312 -2.76477051 9.16163635 C-2.43938293 7.79397377 -2.43938293 7.79397377 -2.10742188 6.39868164 C-1.91724487 5.59531876 -1.72706787 4.79195587 -1.53112793 3.96424866 C-1 2 -1 2 0 0 Z " fill="#ED8043" transform="translate(268,335)"/>
<path d="M0 0 C0.66 0 1.32 0 2 0 C2.268125 0.92039063 2.53625 1.84078125 2.8125 2.7890625 C6.66520022 15.45806446 12.61991141 25.98172984 20.5625 36.5 C34.15539787 54.55630701 39.38581053 74.61531051 38 97 C37.04664348 103.36505675 35.92972154 107.67170449 31 112 C30.67 112 30.34 112 30 112 C29.96261719 110.94683594 29.92523438 109.89367187 29.88671875 108.80859375 C29.02740652 88.58878804 24.62146208 72.78893876 13 56 C7.19151285 47.35156987 3.00921054 38.99009167 0 29 C-0.24621094 28.21109375 -0.49242188 27.4221875 -0.74609375 26.609375 C-3.05993022 17.99232882 -3.18982868 8.34165517 0 0 Z " fill="#E9671E" transform="translate(21,237)"/>
<path d="M0 0 C10.56 0 21.12 0 32 0 C31.67 2.97 31.34 5.94 31 9 C24.4 9 17.8 9 11 9 C10.01 13.29 9.02 17.58 8 22 C13.94 22 19.88 22 26 22 C25.34 24.97 24.68 27.94 24 31 C18.06 31 12.12 31 6 31 C5.690625 32.8975 5.38125 34.795 5.0625 36.75 C4.49517382 40.22960057 3.85609202 43.57563191 3 47 C9.27 47 15.54 47 22 47 C21 54 21 54 20 56 C9.77 56 -0.46 56 -11 56 C-9.875 47 -9.875 47 -8.96850586 42.68554688 C-8.76837387 41.72515503 -8.56824188 40.76476318 -8.36204529 39.77526855 C-8.14846878 38.76661743 -7.93489227 37.75796631 -7.71484375 36.71875 C-7.3840255 35.13761414 -7.3840255 35.13761414 -7.04652405 33.52453613 C-6.3465325 30.18238298 -5.6420861 26.84118723 -4.9375 23.5 C-4.45999116 21.22402027 -3.98277454 18.94797921 -3.50585938 16.671875 C-2.34116389 11.1137456 -1.17044003 5.55693489 0 0 Z " fill="#FDF9F6" transform="translate(569,24)"/>
<path d="M0 0 C10.23 0 20.46 0 31 0 C30.67 2.97 30.34 5.94 30 9 C23.4 9 16.8 9 10 9 C9.34 13.29 8.68 17.58 8 22 C13.61 22 19.22 22 25 22 C24.67 24.97 24.34 27.94 24 31 C17.73 31 11.46 31 5 31 C4.67 33.64 4.34 36.28 4 39 C3.34 41.64 2.68 44.28 2 47 C8.6 47 15.2 47 22 47 C21.34 49.97 20.68 52.94 20 56 C9.44 56 -1.12 56 -12 56 C-10.71205496 48.9163023 -9.3842803 41.87745222 -7.87109375 34.84375 C-7.67653091 33.93419556 -7.48196808 33.02464111 -7.2815094 32.08752441 C-6.87479024 30.18837828 -6.46722643 28.28941285 -6.05883789 26.390625 C-5.43313894 23.47971122 -4.81113636 20.56802375 -4.18945312 17.65625 C-3.79188592 15.80203631 -3.39410718 13.94786796 -2.99609375 12.09375 C-2.81066513 11.22504272 -2.62523651 10.35633545 -2.43418884 9.46130371 C-2.26053299 8.65616333 -2.08687714 7.85102295 -1.90795898 7.02148438 C-1.75632797 6.31519897 -1.60469696 5.60891357 -1.44847107 4.88122559 C-1 3 -1 3 0 0 Z " fill="#FDF9F7" transform="translate(609,24)"/>
<path d="M0 0 C13.53 0 27.06 0 41 0 C40.34 3.3 39.68 6.6 39 10 C32.565 10.495 32.565 10.495 26 11 C22.37 26.51 18.74 42.02 15 58 C10.38 58 5.76 58 1 58 C2.53769956 47.55716125 5.01797707 37.46353857 7.625 27.25 C8.04992161 25.57042437 8.47440396 23.89073755 8.8984375 22.2109375 C9.92723896 18.13932711 10.9619491 14.06926162 12 10 C7.38 10 2.76 10 -2 10 C-1.34 6.7 -0.68 3.4 0 0 Z " fill="#ED7D3E" transform="translate(511,335)"/>
<path d="M0 0 C4.62 0 9.24 0 14 0 C13.32030828 6.73352623 11.88343267 13.15020052 10.27734375 19.71875 C10.01240616 20.81723267 9.74746857 21.91571533 9.47450256 23.04748535 C8.6329375 26.53266428 7.78531341 30.01633638 6.9375 33.5 C6.36353065 35.87229869 5.78995868 38.24469357 5.21679688 40.6171875 C3.81579521 46.41258177 2.40936013 52.20663298 1 58 C-3.62 58 -8.24 58 -13 58 C-11.76075357 50.15986951 -10.27861018 42.47493323 -8.3984375 34.765625 C-8.1571109 33.7615863 -7.9157843 32.75754761 -7.66714478 31.7230835 C-6.90700677 28.56443084 -6.14111554 25.40720753 -5.375 22.25 C-4.85378281 20.0886342 -4.33294618 17.92717659 -3.8125 15.765625 C-2.54605533 10.50934704 -1.27445455 5.25434134 0 0 Z " fill="#ED7E40" transform="translate(561,335)"/>
<path d="M0 0 C0 0.66 0 1.32 0 2 C1.051875 1.443125 2.10375 0.88625 3.1875 0.3125 C6.10713234 -0.92181611 6.7385861 -1.07230597 9.9375 -0.1875 C12 2 12 2 12.5 5.25 C12.08447482 11.97395289 11.04810163 20.90379673 8 27 C5.69 27 3.38 27 1 27 C1.66355044 20.25390382 2.71865793 13.65551466 4 7 C3.34 6.67 2.68 6.34 2 6 C0.68 12.93 -0.64 19.86 -2 27 C-4.64 27 -7.28 27 -10 27 C-8.68 20.07 -7.36 13.14 -6 6 C-6.99 6.495 -6.99 6.495 -8 7 C-8.63851009 8.91071002 -8.63851009 8.91071002 -9.03515625 11.21875 C-9.28942383 12.49298828 -9.28942383 12.49298828 -9.54882812 13.79296875 C-9.71833984 14.68628906 -9.88785156 15.57960937 -10.0625 16.5 C-10.4042916 18.26105261 -10.74917929 20.02150809 -11.09765625 21.78125 C-11.24726807 22.56564453 -11.39687988 23.35003906 -11.55102539 24.15820312 C-12 26 -12 26 -13 27 C-15.33297433 27.04092937 -17.66705225 27.04241723 -20 27 C-18.7144018 17.89493982 -17.01705777 8.96918357 -15 0 C-12.98177083 0.03255208 -10.96354167 0.06510417 -8.9453125 0.09765625 C-1.2242268 -0.28994845 -1.2242268 -0.28994845 0 0 Z " fill="#636362" transform="translate(539,117)"/>
<path d="M0 0 C2.10409639 -0.02701408 4.20829178 -0.04640223 6.3125 -0.0625 C7.48425781 -0.07410156 8.65601563 -0.08570312 9.86328125 -0.09765625 C13 0 13 0 16 1 C18.28337937 4.76757596 18.14301353 7.93028464 17.4921875 12.12890625 C16.84953571 14.57200312 15.73776419 16.18668085 14 18 C14.66 18.99 15.32 19.98 16 21 C16.15234375 23.0859375 16.15234375 23.0859375 15.9375 25.375 C15.88464844 26.12523437 15.83179688 26.87546875 15.77734375 27.6484375 C14.59387835 31.228569 13.01692129 32.75109392 10 35 C7.03078963 35.5849377 4.19872889 35.47656528 1.1875 35.3125 C0.39923828 35.28994141 -0.38902344 35.26738281 -1.20117188 35.24414062 C-3.13493929 35.18554161 -5.06772167 35.09586827 -7 35 C-6.32934198 31.13969244 -5.65369974 27.28029227 -4.97363281 23.42163086 C-4.63088485 21.47099171 -4.2919712 19.51968008 -3.953125 17.56835938 C-3.73398437 16.32763672 -3.51484375 15.08691406 -3.2890625 13.80859375 C-3.09006348 12.67220459 -2.89106445 11.53581543 -2.68603516 10.36499023 C-1.9656852 6.83168652 -1.0326543 3.45305778 0 0 Z M6 6 C5.67 8.31 5.34 10.62 5 13 C6.65 12.67 8.3 12.34 10 12 C10 10.35 10 8.7 10 7 C8.68 6.67 7.36 6.34 6 6 Z M3 20 C2.67 22.97 2.34 25.94 2 29 C5.29075996 28.62095792 5.29075996 28.62095792 8 27 C8.04080783 25.00041636 8.04254356 22.99954746 8 21 C6.35 20.67 4.7 20.34 3 20 Z " fill="#585756" transform="translate(451,109)"/>
<path d="M0 0 C2.24893954 -0.10823773 4.49937575 -0.18569645 6.75 -0.25 C8.00296875 -0.29640625 9.2559375 -0.3428125 10.546875 -0.390625 C14 0 14 0 16.42578125 1.73828125 C18.96513937 5.38663944 18.67304938 8.71695851 18 13 C16.4375 15.9375 16.4375 15.9375 15 18 C15.33 18.66 15.66 19.32 16 20 C16.55512815 24.63213493 16.6364242 27.98172127 14.125 32 C10.29023386 35.60919166 6.8881545 35.11877894 1.875 35.0625 C1.12089844 35.05798828 0.36679688 35.05347656 -0.41015625 35.04882812 C-2.27347127 35.03703499 -4.13674555 35.01909942 -6 35 C-5.41510891 27.15335863 -4.03520694 19.57263566 -2.4375 11.875 C-2.08655273 10.15410156 -2.08655273 10.15410156 -1.72851562 8.3984375 C-1.15676376 5.5980202 -0.5805121 2.79861203 0 0 Z M7 6 C6.34 8.31 5.68 10.62 5 13 C6.65 12.67 8.3 12.34 10 12 C11.01111093 8.95086772 11.01111093 8.95086772 10 6 C9.01 6 8.02 6 7 6 Z M4 20 C3.34 22.97 2.68 25.94 2 29 C4.43717258 28.72965366 4.43717258 28.72965366 7 28 C9.33391203 25.21885944 9.33391203 25.21885944 8.625 22.3125 C8.41875 21.549375 8.2125 20.78625 8 20 C6.68 20 5.36 20 4 20 Z " fill="#575655" transform="translate(220,109)"/>
<path d="M0 0 C2.31 0 4.62 0 7 0 C7.33 3.3 7.66 6.6 8 10 C8.99 6.7 9.98 3.4 11 0 C13.31 0 15.62 0 18 0 C18.33 2.97 18.66 5.94 19 9 C19.99 6.03 20.98 3.06 22 0 C24.31 0 26.62 0 29 0 C28.31571131 5.73091782 26.42909558 10.90870816 24.5 16.3125 C24.17902344 17.23095703 23.85804688 18.14941406 23.52734375 19.09570312 C21.13627679 25.86372321 21.13627679 25.86372321 20 27 C17.32941149 27.14115161 14.67567762 27.04247107 12 27 C11.67 25.35 11.34 23.7 11 22 C10.01 24.475 10.01 24.475 9 27 C6.36 27 3.72 27 1 27 C0.67 18.09 0.34 9.18 0 0 Z " fill="#636262" transform="translate(594,117)"/>
<path d="M0 0 C3.02779107 4.54168661 2.42500797 8.62593204 1.5 13.79296875 C0.18393509 19.33390112 -0.95748228 23.79112509 -6 27 C-9.8125 26.8125 -9.8125 26.8125 -13 26 C-13.33 28.97 -13.66 31.94 -14 35 C-16.64 35 -19.28 35 -22 35 C-21.20896743 30.87487815 -20.41705685 26.7499253 -19.625 22.625 C-19.40328125 21.46871094 -19.1815625 20.31242187 -18.953125 19.12109375 C-17.66364979 12.40823753 -16.35382476 5.7001879 -15 -1 C-3.99564133 -2.49727583 -3.99564133 -2.49727583 0 0 Z M-8 5 C-8.508783 6.55966218 -9.00663469 8.12289241 -9.5 9.6875 C-9.7784375 10.55761719 -10.056875 11.42773438 -10.34375 12.32421875 C-10.99850805 14.99391677 -11.11831495 17.26396684 -11 20 C-10.01 20 -9.02 20 -8 20 C-7.46906676 18.06524329 -6.95057683 16.12706845 -6.4375 14.1875 C-6.14746094 13.10855469 -5.85742188 12.02960938 -5.55859375 10.91796875 C-4.74432262 7.95210241 -4.74432262 7.95210241 -6 5 C-6.66 5 -7.32 5 -8 5 Z " fill="#605F5E" transform="translate(570,118)"/>
<path d="M0 0 C7.30538922 0.47904192 7.30538922 0.47904192 10 2.5 C13.62120652 11.5530163 9.60938339 23.46485482 6.125 32.0625 C4.35038601 35.70548117 2.66104908 38.04176445 -1 40 C-4.8125 40.25 -4.8125 40.25 -8 40 C-7.31071024 32.05593553 -5.70614883 24.40729207 -4 16.625 C-3.72671875 15.35527344 -3.4534375 14.08554687 -3.171875 12.77734375 C-1.14941109 3.44823328 -1.14941109 3.44823328 0 0 Z " fill="#EC6E26" transform="translate(533,32)"/>
<path d="M0 0 C2.64 0 5.28 0 8 0 C7.21053766 4.14625618 6.41802789 8.29192442 5.625 12.4375 C5.29242188 14.18450195 5.29242188 14.18450195 4.953125 15.96679688 C3.73300897 22.33652025 2.44699264 28.67785927 1 35 C-1.0788382 35.30341425 -3.163573 35.5666325 -5.25 35.8125 C-6.41015625 35.96332031 -7.5703125 36.11414063 -8.765625 36.26953125 C-12 36 -12 36 -14.39453125 33.703125 C-17.9580596 27.70321838 -15.52649209 21.17298523 -14.046875 14.76953125 C-12.8583471 11.62525407 -11.62115993 10.08122062 -9 8 C-5.85477278 7.68547728 -3.84083641 7.57958179 -1 9 C-0.67 6.03 -0.34 3.06 0 0 Z M-5 14 C-7.8352113 19.5522888 -8.37952295 23.80112515 -8 30 C-7.01 29.67 -6.02 29.34 -5 29 C-3.30737336 24.619084 -2.69846737 19.67375574 -3 15 C-3.66 14.67 -4.32 14.34 -5 14 Z " fill="#5D5D5C" transform="translate(419,109)"/>
<path d="M0 0 C1.134375 0.020625 2.26875 0.04125 3.4375 0.0625 C2.74352092 7.50700289 1.42274584 14.73811624 -0.0625 22.0625 C-0.28808594 23.20589844 -0.51367188 24.34929687 -0.74609375 25.52734375 C-0.96394531 26.61144531 -1.18179687 27.69554687 -1.40625 28.8125 C-1.60412109 29.79734375 -1.80199219 30.7821875 -2.00585938 31.796875 C-2.5625 34.0625 -2.5625 34.0625 -3.5625 35.0625 C-5.67886628 35.37733135 -7.80698215 35.61496854 -9.9375 35.8125 C-11.10023438 35.93109375 -12.26296875 36.0496875 -13.4609375 36.171875 C-16.5625 36.0625 -16.5625 36.0625 -18.453125 34.9296875 C-21.2223001 30.26889279 -20.06267376 23.51987543 -19.0234375 18.4140625 C-17.74938275 14.19988139 -16.45792964 10.44304034 -12.5625 8.0625 C-8.8125 8.3125 -8.8125 8.3125 -5.5625 9.0625 C-5.418125 7.763125 -5.27375 6.46375 -5.125 5.125 C-4.56445312 0.08007812 -4.56445312 0.08007812 0 0 Z M-10.5625 15.0625 C-12.17287909 20.25149929 -12.78791675 24.65249807 -12.5625 30.0625 C-11.5725 29.7325 -10.5825 29.4025 -9.5625 29.0625 C-7.21698877 24.12458162 -7.3490778 19.39805495 -7.5625 14.0625 C-8.7861068 13.9879644 -8.7861068 13.9879644 -10.5625 15.0625 Z " fill="#5C5B5B" transform="translate(309.5625,108.9375)"/>
<path d="M0 0 C2.64 0 5.28 0 8 0 C6.89743217 7.95009436 5.50146784 15.81675405 3.9375 23.6875 C3.7631543 24.57276367 3.58880859 25.45802734 3.40917969 26.37011719 C3.1582959 27.61583496 3.1582959 27.61583496 2.90234375 28.88671875 C2.75273193 29.63139404 2.60312012 30.37606934 2.44897461 31.14331055 C2 33 2 33 1 35 C-1.8359375 35.51953125 -1.8359375 35.51953125 -5.375 35.8125 C-6.53773438 35.92207031 -7.70046875 36.03164062 -8.8984375 36.14453125 C-12 36 -12 36 -13.890625 34.8984375 C-16.70628275 30.0800936 -15.59989493 22.77342727 -14.4609375 17.5078125 C-13.10137862 13.54865752 -11.44046555 10.42856392 -8 8 C-5.3125 7.6875 -5.3125 7.6875 -3 8 C-2.67 8.33 -2.34 8.66 -2 9 C-1.34 6.03 -0.68 3.06 0 0 Z M-5 14 C-7.45029331 19.71735105 -8.33266291 23.79029227 -8 30 C-7.01 29.67 -6.02 29.34 -5 29 C-3.00813631 23.86308839 -2.8078773 19.47549707 -3 14 C-3.66 14 -4.32 14 -5 14 Z " fill="#5C5B5B" transform="translate(692,109)"/>
<path d="M0 0 C5.94 0 11.88 0 18 0 C17.67 2.31 17.34 4.62 17 7 C13.7 7.33 10.4 7.66 7 8 C6.67 9.65 6.34 11.3 6 13 C8.97 13 11.94 13 15 13 C14.67 15.31 14.34 17.62 14 20 C10.7 20 7.4 20 4 20 C3.67 22.64 3.34 25.28 3 28 C6.3 28 9.6 28 13 28 C12.67 30.31 12.34 32.62 12 35 C6.06 35 0.12 35 -6 35 C-5.36145419 27.14662055 -4.03789164 19.58557038 -2.4375 11.875 C-2.08655273 10.15410156 -2.08655273 10.15410156 -1.72851562 8.3984375 C-1.15677005 5.59805099 -0.57900784 2.79889399 0 0 Z " fill="#5F5E5D" transform="translate(505,109)"/>
<path d="M0 0 C5.61 0 11.22 0 17 0 C16.67 2.31 16.34 4.62 16 7 C12.7 7 9.4 7 6 7 C5.67 8.98 5.34 10.96 5 13 C7.97 13 10.94 13 14 13 C13.67 15.31 13.34 17.62 13 20 C10.03 20.33 7.06 20.66 4 21 C3.34 23.31 2.68 25.62 2 28 C5.3 28 8.6 28 12 28 C11.67 30.31 11.34 32.62 11 35 C5.06 35 -0.88 35 -7 35 C-6.32800889 31.13989841 -5.65370242 27.28030752 -4.97363281 23.42163086 C-4.63088485 21.47099171 -4.2919712 19.51968008 -3.953125 17.56835938 C-3.73398437 16.32763672 -3.51484375 15.08691406 -3.2890625 13.80859375 C-3.09006348 12.67220459 -2.89106445 11.53581543 -2.68603516 10.36499023 C-1.97304908 6.86780621 -0.98051374 3.43179808 0 0 Z " fill="#5D5D5C" transform="translate(275,109)"/>
<path d="M0 0 C10.89 0 21.78 0 33 0 C32 8 32 8 30 14 C19.11 14 8.22 14 -3 14 C-2.01 9.38 -1.02 4.76 0 0 Z " fill="#209BD7" transform="translate(402,460)"/>
<path d="M0 0 C2.5 1.375 2.5 1.375 4 4 C4.14035494 7.73854526 3.58879585 11.31423073 3 15 C2.73896484 16.67642578 2.73896484 16.67642578 2.47265625 18.38671875 C2.00635387 21.26281737 1.51547377 24.13236439 1 27 C-1.2458605 27.30325122 -3.4971469 27.56652522 -5.75 27.8125 C-7.00296875 27.96332031 -8.2559375 28.11414063 -9.546875 28.26953125 C-13 28 -13 28 -15.421875 25.69921875 C-17.34655164 22.40725944 -17.62587176 20.75523057 -17 17 C-14.38407519 12.22309382 -10.79945827 10.76902241 -5.92578125 8.89453125 C-3.82027453 8.15953816 -3.82027453 8.15953816 -3 6 C-4.32 6 -5.64 6 -7 6 C-7 6.99 -7 7.98 -7 9 C-9.64 9 -12.28 9 -15 9 C-13.07517084 2.33712984 -13.07517084 2.33712984 -10 0 C-6.19426871 -1.2685771 -3.89430952 -0.88817586 0 0 Z M-7 16 C-8.6446674 18.46326712 -8.6446674 18.46326712 -10 21 C-8.68 21.33 -7.36 21.66 -6 22 C-5.67 20.02 -5.34 18.04 -5 16 C-5.66 16 -6.32 16 -7 16 Z " fill="#5D5C5C" transform="translate(367,117)"/>
<path d="M0 0 C2.64 0 5.28 0 8 0 C6.68 7.26 5.36 14.52 4 22 C4.66 21.67 5.32 21.34 6 21 C6.63851294 19.10590054 6.63851294 19.10590054 7.03515625 16.81640625 C7.20466797 15.97142578 7.37417969 15.12644531 7.54882812 14.25585938 C7.71833984 13.36705078 7.88785156 12.47824219 8.0625 11.5625 C8.40519793 9.81333921 8.75014444 8.06461702 9.09765625 6.31640625 C9.24726807 5.53724854 9.39687988 4.75809082 9.55102539 3.95532227 C10 2 10 2 11 0 C13.31 0 15.62 0 18 0 C17.39828638 6.32749371 16.37848091 12.37595652 14.9375 18.5625 C14.75123047 19.38041016 14.56496094 20.19832031 14.37304688 21.04101562 C13.91979313 23.02835896 13.46053788 25.01433201 13 27 C10.7089095 27.19441368 8.41709663 27.38033135 6.125 27.5625 C4.84882813 27.66691406 3.57265625 27.77132812 2.2578125 27.87890625 C-1 28 -1 28 -3 27 C-4.5726372 20.86589157 -3.41786377 15.65505755 -2.0625 9.5625 C-1.86720703 8.64017578 -1.67191406 7.71785156 -1.47070312 6.76757812 C-0.99095297 4.50924201 -0.50052665 2.25380549 0 0 Z " fill="#565554" transform="translate(314,117)"/>
<path d="M0 0 C0.66 0.33 1.32 0.66 2 1 C2.99293628 3.97880885 3.13406411 6.01601198 3.125 9.125 C3.12886719 10.45917969 3.12886719 10.45917969 3.1328125 11.8203125 C3 14 3 14 2 15 C0.14712498 15.07226502 -1.70833878 15.0838122 -3.5625 15.0625 C-4.57441406 15.05347656 -5.58632813 15.04445312 -6.62890625 15.03515625 C-7.80259766 15.01775391 -7.80259766 15.01775391 -9 15 C-9 16.98 -9 18.96 -9 21 C-8.34 21 -7.68 21 -7 21 C-6.67 19.68 -6.34 18.36 -6 17 C-3.69 17 -1.38 17 1 17 C0.72139186 20.6219058 0.42061885 23.31649437 -1.5 26.4375 C-5.13548351 28.70967719 -8.81689424 28.85511002 -13 28 C-14.98321941 26.52495246 -15.83085124 25.5042346 -16.6171875 23.16015625 C-17.43464634 16.50901391 -16.49858622 10.23293531 -14 4 C-9.64299828 -1.1877485 -6.47948712 -1.17808857 0 0 Z M-7 6 C-7.33 7.32 -7.66 8.64 -8 10 C-6.68 10 -5.36 10 -4 10 C-4 8.68 -4 7.36 -4 6 C-4.99 6 -5.98 6 -7 6 Z " fill="#5E5D5C" transform="translate(673,117)"/>
<path d="M0 0 C0.66 0.33 1.32 0.66 2 1 C2.99293628 3.97880885 3.13406411 6.01601198 3.125 9.125 C3.12886719 10.45917969 3.12886719 10.45917969 3.1328125 11.8203125 C3 14 3 14 2 15 C0.14712498 15.07226502 -1.70833878 15.0838122 -3.5625 15.0625 C-4.57441406 15.05347656 -5.58632813 15.04445312 -6.62890625 15.03515625 C-7.80259766 15.01775391 -7.80259766 15.01775391 -9 15 C-9 17.31 -9 19.62 -9 22 C-8.34 21.67 -7.68 21.34 -7 21 C-6.34786708 18.97536745 -6.34786708 18.97536745 -6 17 C-3.69 17 -1.38 17 1 17 C1.45761159 20.9354597 1.29742742 22.57244809 -1 25.875 C-5.12923242 28.79987296 -7.01093093 28.63353258 -12 28 C-14.4375 27 -14.4375 27 -16 25 C-17.96434504 17.92835787 -16.49846266 10.81890892 -14 4 C-9.68674768 -1.21439835 -6.4520753 -1.1731046 0 0 Z M-7 6 C-7.33 7.32 -7.66 8.64 -8 10 C-6.68 10 -5.36 10 -4 10 C-4 8.68 -4 7.36 -4 6 C-4.99 6 -5.98 6 -7 6 Z " fill="#5E5D5D" transform="translate(638,117)"/>
<path d="M0 0 C1.9375 1.625 1.9375 1.625 3 4 C3.28926333 8.04968665 2.9883607 11.04655721 2 15 C-1.63 15.33 -5.26 15.66 -9 16 C-9 17.65 -9 19.3 -9 21 C-8.34 21.33 -7.68 21.66 -7 22 C-6.67 20.35 -6.34 18.7 -6 17 C-3.69 17 -1.38 17 1 17 C0.72139186 20.6219058 0.42061885 23.31649437 -1.5 26.4375 C-5.25922296 28.78701435 -8.69312365 28.88508285 -13 28 C-15.78230583 25.89630535 -16.78419408 24.44898263 -17.30078125 20.98046875 C-17.52727722 14.17366886 -16.93029707 7.37575024 -12.5625 2 C-8.2078818 -1.3987264 -5.26818458 -1.22297142 0 0 Z M-7 6 C-7.33 7.32 -7.66 8.64 -8 10 C-6.68 9.67 -5.36 9.34 -4 9 C-4 8.01 -4 7.02 -4 6 C-4.99 6 -5.98 6 -7 6 Z " fill="#5E5D5C" transform="translate(400,117)"/>
<path d="M0 0 C0.66 0.33 1.32 0.66 2 1 C2.99293628 3.97880885 3.13406411 6.01601198 3.125 9.125 C3.12886719 10.45917969 3.12886719 10.45917969 3.1328125 11.8203125 C3 14 3 14 2 15 C0.14712498 15.07226502 -1.70833878 15.0838122 -3.5625 15.0625 C-4.57441406 15.05347656 -5.58632812 15.04445312 -6.62890625 15.03515625 C-7.80259766 15.01775391 -7.80259766 15.01775391 -9 15 C-9 17.31 -9 19.62 -9 22 C-8.34 21.67 -7.68 21.34 -7 21 C-6.34786708 18.97536745 -6.34786708 18.97536745 -6 17 C-3.69 17 -1.38 17 1 17 C1.45761159 20.9354597 1.29742742 22.57244809 -1 25.875 C-5.12923242 28.79987296 -7.01093093 28.63353258 -12 28 C-14.4375 27 -14.4375 27 -16 25 C-17.96434504 17.92835787 -16.49846266 10.81890892 -14 4 C-9.68674768 -1.21439835 -6.4520753 -1.1731046 0 0 Z M-7 6 C-7.33 7.32 -7.66 8.64 -8 10 C-6.68 10 -5.36 10 -4 10 C-4 8.68 -4 7.36 -4 6 C-4.99 6 -5.98 6 -7 6 Z " fill="#5E5D5D" transform="translate(255,117)"/>
<path d="M0 0 C1.99301736 1.58066894 2.86543351 2.73086702 4 5 C3.82949233 8.35515092 3.38532868 11.66048476 3 15 C-0.63 15.33 -4.26 15.66 -8 16 C-8 17.65 -8 19.3 -8 21 C-7.34 21.33 -6.68 21.66 -6 22 C-5.67 20.35 -5.34 18.7 -5 17 C-2.69 17 -0.38 17 2 17 C1.71860476 20.65813817 1.43656214 23.31896306 -0.5625 26.4375 C-4.0074757 28.64581775 -7.08583366 28.7285775 -11 28 C-14 26.625 -14 26.625 -16 24 C-17.04379572 17.88006089 -16.23884339 10.79129387 -14 5 C-9.69446228 -0.29912335 -6.64630044 -1.66157511 0 0 Z M-6 6 C-6.33 7.32 -6.66 8.64 -7 10 C-5.68 9.67 -4.36 9.34 -3 9 C-3 8.01 -3 7.02 -3 6 C-3.99 6 -4.98 6 -6 6 Z " fill="#5E5D5C" transform="translate(485,117)"/>
<path d="M0 0 C0.80824219 0.19464844 1.61648438 0.38929687 2.44921875 0.58984375 C3.37154297 0.82380859 3.37154297 0.82380859 4.3125 1.0625 C6.93272098 8.92316293 6.05538749 14.89472557 2.875 22.5 C0.19612652 26.8933525 0.19612652 26.8933525 -1.6875 28.0625 C-8.67779126 28.83919903 -8.67779126 28.83919903 -12.125 26.1875 C-14.8496869 22.48192582 -15.14910611 19.56315956 -14.6875 15.0625 C-13.46643339 9.29834735 -12.02522874 4.26467472 -7.6875 0.0625 C-4.39053895 -1.03648702 -3.28255097 -0.80874444 0 0 Z M-3.6875 6.0625 C-6.40856694 8.78356694 -6.29405572 10.91026311 -6.8125 14.6875 C-6.98007812 15.87601563 -7.14765625 17.06453125 -7.3203125 18.2890625 C-7.44148437 19.20429688 -7.56265625 20.11953125 -7.6875 21.0625 C-6.3675 21.0625 -5.0475 21.0625 -3.6875 21.0625 C-1.9395497 15.81864911 -1.49357799 11.58927733 -1.6875 6.0625 C-2.3475 6.0625 -3.0075 6.0625 -3.6875 6.0625 Z " fill="#5B5A5A" transform="translate(586.6875,116.9375)"/>
<path d="M0 0 C1.99301736 1.58066894 2.86543351 2.73086702 4 5 C4.039992 6.99960012 4.04346799 9.00047242 4 11 C1.69 11 -0.62 11 -3 11 C-3.66 9.68 -4.32 8.36 -5 7 C-6.91626837 11.98229776 -7.5547115 16.72684667 -8 22 C-7.34 22 -6.68 22 -6 22 C-5.67 20.02 -5.34 18.04 -5 16 C-2.69 16 -0.38 16 2 16 C1.7579806 20.11432986 1.32870991 22.5318374 -1.0625 25.9375 C-5.18151646 28.82957539 -7.03746786 28.78770351 -12 28 C-15.10502911 25.43835098 -15.88125944 23.84814684 -16.4375 19.875 C-15.62571812 12.68493192 -14.488521 5.14548844 -9 0 C-5.45026831 -1.1832439 -3.60040463 -0.90010116 0 0 Z " fill="#61605F" transform="translate(347,117)"/>
<path d="M0 0 C0.66 0 1.32 0 2 0 C5 5.75 5 5.75 5 8 C7.97 8.33 10.94 8.66 14 9 C12 13 12 13 10.38671875 14.45703125 C8.48969208 16.56780741 8.69132079 17.90037826 8.8125 20.6875 C8.83957031 21.49574219 8.86664063 22.30398437 8.89453125 23.13671875 C8.94673828 24.05904297 8.94673828 24.05904297 9 25 C7.63875 24.5359375 7.63875 24.5359375 6.25 24.0625 C5.1775 23.711875 4.105 23.36125 3 23 C2.319375 22.731875 1.63875 22.46375 0.9375 22.1875 C-1.99322214 21.90388173 -3.60662067 23.42540834 -6 25 C-6.66 25 -7.32 25 -8 25 C-7.67 21.37 -7.34 17.74 -7 14 C-8.32 13.34 -9.64 12.68 -11 12 C-11.66 11.01 -12.32 10.02 -13 9 C-9.52674819 7.8422494 -6.63932552 7.93133348 -3 8 C-2.690625 6.865625 -2.38125 5.73125 -2.0625 4.5625 C-1 1 -1 1 0 0 Z " fill="#008ACE" transform="translate(190,16)"/>
<path d="M0 0 C1.55919615 1.98443146 2.88324627 3.70362515 3.8125 6.0625 C4.84807696 8.19389897 4.84807696 8.19389897 7.1640625 8.828125 C7.97617188 8.96734375 8.78828125 9.1065625 9.625 9.25 C10.44226563 9.39953125 11.25953125 9.5490625 12.1015625 9.703125 C12.72804688 9.80109375 13.35453125 9.8990625 14 10 C13.55527344 10.40089844 13.11054687 10.80179688 12.65234375 11.21484375 C9.06896359 14.75035336 9.06896359 14.75035336 7.82421875 19.46875 C8.09530461 21.69376642 8.45773402 23.82600639 9 26 C7.948125 25.505 6.89625 25.01 5.8125 24.5 C2.73240764 23.18707174 0.3861413 22.5297026 -3 23 C-3.99 23.66 -4.98 24.32 -6 25 C-6.99 24.67 -7.98 24.34 -9 24 C-8.566875 22.1746875 -8.566875 22.1746875 -8.125 20.3125 C-7.74566077 18.13178667 -7.74566077 18.13178667 -8 16 C-9.76982052 13.70740172 -11.53077209 12.612557 -14 11 C-13.67 10.34 -13.34 9.68 -13 9 C-10.71484375 8.5859375 -10.71484375 8.5859375 -7.9375 8.375 C-6.55884766 8.26285156 -6.55884766 8.26285156 -5.15234375 8.1484375 C-4.08693359 8.07496094 -4.08693359 8.07496094 -3 8 C-2.87625 7.236875 -2.7525 6.47375 -2.625 5.6875 C-2 3 -2 3 0 0 Z " fill="#008ACE" transform="translate(100,10)"/>
<path d="M0 0 C0.99 0.33 1.98 0.66 3 1 C3.37125 1.969375 3.7425 2.93875 4.125 3.9375 C5.64538671 7.11940742 5.64538671 7.11940742 8.19140625 7.83984375 C10.45873496 8.32595335 12.6985908 8.72016408 15 9 C14.55527344 9.40089844 14.11054688 9.80179688 13.65234375 10.21484375 C10.06896359 13.75035336 10.06896359 13.75035336 8.82421875 18.46875 C9.09530461 20.69376642 9.45773402 22.82600639 10 25 C9.48050781 24.77183594 8.96101563 24.54367188 8.42578125 24.30859375 C2.8443389 21.99691919 2.8443389 21.99691919 -3 23 C-4.33818143 23.65688103 -5.67229195 24.32219946 -7 25 C-6.94199219 24.34773438 -6.88398438 23.69546875 -6.82421875 23.0234375 C-6.47094873 16.70556784 -6.47094873 16.70556784 -9.5 11.375 C-10.325 10.59125 -11.15 9.8075 -12 9 C-5.375 7 -5.375 7 -2 7 C-1.34 4.69 -0.68 2.38 0 0 Z " fill="#008ACE" transform="translate(147,0)"/>
<path d="M0 0 C2.31 0 4.62 0 7 0 C6.67 2.31 6.34 4.62 6 7 C6.66 7 7.32 7 8 7 C7.625 9.9375 7.625 9.9375 7 13 C6.01 13.495 6.01 13.495 5 14 C4.37147066 16.33247815 3.84464754 18.69291467 3.375 21.0625 C3.11460937 22.35285156 2.85421875 23.64320313 2.5859375 24.97265625 C2.39257812 25.97167969 2.19921875 26.97070312 2 28 C2.66 28 3.32 28 4 28 C4.125 30.375 4.125 30.375 4 33 C3.34 33.66 2.68 34.32 2 35 C-1.625 34.625 -1.625 34.625 -5 34 C-6.02575676 28.72176819 -5.80488532 24.78051836 -4.5625 19.5625 C-4.27503906 18.32628906 -3.98757813 17.09007812 -3.69140625 15.81640625 C-3.46324219 14.88699219 -3.23507812 13.95757812 -3 13 C-3.66 13 -4.32 13 -5 13 C-4.67 11.02 -4.34 9.04 -4 7 C-3.01 7 -2.02 7 -1 7 C-0.67 4.69 -0.34 2.38 0 0 Z " fill="#666565" transform="translate(377,110)"/>
<path d="M0 0 C0.125 6.75 0.125 6.75 -1 9 C-2.65 9.33 -4.3 9.66 -6 10 C-7.32 15.94 -8.64 21.88 -10 28 C-12.64 28 -15.28 28 -18 28 C-16.35 19.09 -14.7 10.18 -13 1 C-10.03 1 -7.06 1 -4 1 C-2 0 -2 0 0 0 Z " fill="#646463" transform="translate(658,116)"/>
<path d="M0 0 C0.66 0 1.32 0 2 0 C2.66 1.98 3.32 3.96 4 6 C6.31 6.33 8.62 6.66 11 7 C9.79618552 9.49361571 8.54571278 11.68143083 7 14 C7.3121764 16.64632287 7.3121764 16.64632287 8 19 C7.32453125 18.91621094 6.6490625 18.83242188 5.953125 18.74609375 C5.06109375 18.64425781 4.1690625 18.54242188 3.25 18.4375 C2.36828125 18.33308594 1.4865625 18.22867188 0.578125 18.12109375 C-1.88432451 18.00543324 -3.66538064 18.26361305 -6 19 C-5.9175 17.948125 -5.835 16.89625 -5.75 15.8125 C-6.03525487 11.46236331 -7.02449969 10.0684847 -10 7 C-7.29120665 5.64560332 -4.99066732 5.93498549 -2 6 C-1.34 4.02 -0.68 2.04 0 0 Z " fill="#0088CB" transform="translate(213,44)"/>
<path d="M0 0 C2.31 0.33 4.62 0.66 7 1 C6.19360643 4.98042977 5.3788693 8.95910525 4.5625 12.9375 C4.33240234 14.07380859 4.10230469 15.21011719 3.86523438 16.38085938 C3.64287109 17.46044922 3.42050781 18.54003906 3.19140625 19.65234375 C2.98717041 20.65257568 2.78293457 21.65280762 2.57250977 22.68334961 C2 25 2 25 1 26 C-1.33297433 26.04092937 -3.66705225 26.04241723 -6 26 C-4.80039297 17.97284232 -3.50253855 9.9762419 -2 2 C-1.34 2 -0.68 2 0 2 C0 1.34 0 0.68 0 0 Z " fill="#5B5A59" transform="translate(525,118)"/>
<path d="M0 0 C3.375 -0.125 3.375 -0.125 7 0 C9.39286884 2.39286884 9.32050616 3.09447094 9.375 6.375 C9.28452305 9.49645486 9.10803947 10.81543257 7.5 13.5625 C3.85665449 15.65742367 1.16543193 15.27769546 -3 15 C-2.5547115 9.72684667 -1.91626837 4.98229776 0 0 Z " fill="#EC6C23" transform="translate(489,33)"/>
<path d="M0 0 C0.33 0 0.66 0 1 0 C1 7.92 1 15.84 1 24 C-2.63 24 -6.26 24 -10 24 C-6.66666667 16 -3.33333333 8 0 0 Z " fill="#EC6B23" transform="translate(448,35)"/>
<path d="M0 0 C0.33 0 0.66 0 1 0 C1 7.59 1 15.18 1 23 C-2.3 23 -5.6 23 -9 23 C-8.33673121 17.8307147 -6.08075343 13.37748635 -3.9375 8.6875 C-3.37192383 7.43356445 -3.37192383 7.43356445 -2.79492188 6.15429688 C-1.86788193 4.10072738 -0.93613122 2.04943713 0 0 Z " fill="#EC6D25" transform="translate(334,36)"/>
<path d="M0 0 C0 1.32 0 2.64 0 4 C-0.99 4.33 -1.98 4.66 -3 5 C-2.34 5.33 -1.68 5.66 -1 6 C-1.875 12.875 -1.875 12.875 -3 14 C-5.33297433 14.04092937 -7.66705225 14.04241723 -10 14 C-9.74412595 12.22694336 -9.46972261 10.45655392 -9.1875 8.6875 C-9.03667969 7.70136719 -8.88585937 6.71523437 -8.73046875 5.69921875 C-7.34156771 0.56696946 -5.12856471 -0.41582957 0 0 Z " fill="#616160" transform="translate(207,108)"/>
<path d="M0 0 C0 1.32 0 2.64 0 4 C-0.99 4.33 -1.98 4.66 -3 5 C-3.33 5.66 -3.66 6.32 -4 7 C-3.01 7.33 -2.02 7.66 -1 8 C-1.33 9.98 -1.66 11.96 -2 14 C-4.64 14 -7.28 14 -10 14 C-9.74412595 12.22694336 -9.46972261 10.45655392 -9.1875 8.6875 C-9.03667969 7.70136719 -8.88585937 6.71523437 -8.73046875 5.69921875 C-7.34156771 0.56696946 -5.12856471 -0.41582957 0 0 Z " fill="#858584" transform="translate(217,108)"/>
<path d="M0 0 C2.31 0 4.62 0 7 0 C6.88490339 1.41750563 6.75746342 2.83401169 6.625 4.25 C6.55539062 5.03890625 6.48578125 5.8278125 6.4140625 6.640625 C5.97162268 9.16169718 5.438764 10.87971621 4 13 C0.375 13.75 0.375 13.75 -3 14 C-2.43628586 10.73045798 -1.50037734 9.17424117 1 7 C0.01 7 -0.98 7 -2 7 C-1.34 4.69 -0.68 2.38 0 0 Z " fill="#A5A4A4" transform="translate(425,137)"/>
<path d="M0 0 C2.31 0 4.62 0 7 0 C6.88490339 1.41750563 6.75746342 2.83401169 6.625 4.25 C6.55539062 5.03890625 6.48578125 5.8278125 6.4140625 6.640625 C5.97162268 9.16169718 5.438764 10.87971621 4 13 C0.375 13.75 0.375 13.75 -3 14 C-2.67 12.68 -2.34 11.36 -2 10 C-1.01 10 -0.02 10 1 10 C1 9.34 1 8.68 1 8 C0.34 7.67 -0.32 7.34 -1 7 C-0.67 4.69 -0.34 2.38 0 0 Z " fill="#60605F" transform="translate(703,109)"/>
<path d="M0 0 C2.31 0 4.62 0 7 0 C6.65449986 9.05210365 6.65449986 9.05210365 4.1875 12.625 C2 14 2 14 -2 14 C-2 12.68 -2 11.36 -2 10 C-1.01 10 -0.02 10 1 10 C1 9.34 1 8.68 1 8 C0.34 7.67 -0.32 7.34 -1 7 C-0.67 4.69 -0.34 2.38 0 0 Z " fill="#7C7B7B" transform="translate(713,109)"/>
<path d="M0 0 C5.94 0 11.88 0 18 0 C18 5.94 18 11.88 18 18 C17.34 17.67 16.68 17.34 16 17 C16 12.05 16 7.1 16 2 C11.05 2 6.1 2 1 2 C0.67 7.61 0.34 13.22 0 19 C-0.33 19 -0.66 19 -1 19 C-1.22639503 17.33569058 -1.43006432 15.66828674 -1.625 14 C-1.74101563 13.071875 -1.85703125 12.14375 -1.9765625 11.1875 C-2 8 -2 8 0 0 Z " fill="#A7CBDC" transform="translate(635,469)"/>
<path d="M0 0 C0.33 0 0.66 0 1 0 C1.04651906 7.29368256 1.08196802 14.58733267 1.10362434 21.88113403 C1.11402286 25.26862868 1.12810933 28.65602116 1.15087891 32.04345703 C1.17522296 35.94566514 1.18650525 39.84772963 1.1953125 43.75 C1.20563507 44.95551514 1.21595764 46.16103027 1.22659302 47.40307617 C1.22741841 53.63513689 0.85639817 59.03897059 -1 65 C-1.33 65 -1.66 65 -2 65 C-1.97494385 64.23896973 -1.9498877 63.47793945 -1.92407227 62.69384766 C-1.23809285 41.79714139 -0.60355322 20.89924303 0 0 Z " fill="#BADDEE" transform="translate(102,420)"/>
<path d="M0 0 C1.6421044 4.91482994 0.10604364 9.05533432 -1 14 C4.28 14 9.56 14 15 14 C15.12375 12.55625 15.2475 11.1125 15.375 9.625 C15.75 5.25 15.75 5.25 18 3 C17.34 7.29 16.68 11.58 16 16 C9.73 16 3.46 16 -3 16 C-2.19642857 4.88392857 -2.19642857 4.88392857 0 0 Z " fill="#ABD6EB" transform="translate(580,426)"/>
<path d="M0 0 C2.31 0 4.62 0 7 0 C6.39828638 6.32749371 5.37848091 12.37595652 3.9375 18.5625 C3.75123047 19.38041016 3.56496094 20.19832031 3.37304688 21.04101562 C2.91979313 23.02835896 2.46053788 25.01433201 2 27 C-0.97 27 -3.94 27 -7 27 C-4 25 -4 25 -1.3125 25.375 C-0.1678125 25.684375 -0.1678125 25.684375 1 26 C1.12117188 25.18917969 1.24234375 24.37835938 1.3671875 23.54296875 C2.45771049 16.33712841 3.65085977 9.16192525 5 2 C3.03506426 2.34520448 3.03506426 2.34520448 1 3 C-0.28436734 4.9837767 -0.28436734 4.9837767 -1 7 C-0.67 4.69 -0.34 2.38 0 0 Z " fill="#B9B9B9" transform="translate(325,117)"/>
<path d="M0 0 C0.99 0.33 1.98 0.66 3 1 C-1.95 5.95 -6.9 10.9 -12 16 C-12 10.75489078 -7.92005277 6.9660972 -4.37109375 3.33203125 C-2.8125 1.9375 -2.8125 1.9375 0 0 Z " fill="#53AEDA" transform="translate(586,462)"/>
<path d="M0 0 C0.33 0.99 0.66 1.98 1 3 C1.99 3 2.98 3 4 3 C4.33 3.99 4.66 4.98 5 6 C5.33 6.66 5.66 7.32 6 8 C4.8125 9.5 4.8125 9.5 3 11 C0.3125 11.1875 0.3125 11.1875 -2 11 C-1.67 9.68 -1.34 8.36 -1 7 C-0.01 7 0.98 7 2 7 C2 6.34 2 5.68 2 5 C1.34 4.67 0.68 4.34 0 4 C0 2.68 0 1.36 0 0 Z " fill="#A3A3A2" transform="translate(702,112)"/>
<path d="M0 0 C1.98 0 3.96 0 6 0 C5.67 2.31 5.34 4.62 5 7 C2.525 6.01 2.525 6.01 0 5 C0 3.35 0 1.7 0 0 Z " fill="#323130" transform="translate(425,138)"/>
<path d="M0 0 C0.598125 0.226875 1.19625 0.45375 1.8125 0.6875 C1.8125 1.3475 1.8125 2.0075 1.8125 2.6875 C0.8225 3.0175 -0.1675 3.3475 -1.1875 3.6875 C-2.1775 5.1725 -2.1775 5.1725 -3.1875 6.6875 C-3.8475 6.6875 -4.5075 6.6875 -5.1875 6.6875 C-5.5175 8.0075 -5.8475 9.3275 -6.1875 10.6875 C-5.58266129 3.30846774 -5.58266129 3.30846774 -3.875 0.625 C-2.1875 -0.3125 -2.1875 -0.3125 0 0 Z " fill="#737271" transform="translate(214.1875,108.3125)"/>
<path d="M0 0 C0.66 0.33 1.32 0.66 2 1 C-1.63 4.63 -5.26 8.26 -9 12 C-9 8.27944454 -8.18702362 6.98893229 -6 4 C-2.8125 1.6875 -2.8125 1.6875 0 0 Z " fill="#62B8E2" transform="translate(529,416)"/>
<path d="M0 0 C1.65 0 3.3 0 5 0 C5 1.32 5 2.64 5 4 C4.01 4.33 3.02 4.66 2 5 C2.66 5.33 3.32 5.66 4 6 C3.67 8.31 3.34 10.62 3 13 C2.67 13 2.34 13 2 13 C2 11.35 2 9.7 2 8 C1.34 8 0.68 8 0 8 C0.375 5.5625 0.375 5.5625 1 3 C1.66 2.67 2.32 2.34 3 2 C2.01 1.34 1.02 0.68 0 0 Z " fill="#CDCDCD" transform="translate(202,108)"/>
<path d="M0 0 C0.33 0 0.66 0 1 0 C1 5.28 1 10.56 1 16 C0.67 16 0.34 16 0 16 C-0.33 13.36 -0.66 10.72 -1 8 C-1.99 8.495 -1.99 8.495 -3 9 C-2.01 6.03 -1.02 3.06 0 0 Z " fill="#EF7F41" transform="translate(448,35)"/>
<path d="M0 0 C0.66 0.33 1.32 0.66 2 1 C-0.97 3.97 -3.94 6.94 -7 10 C-7 6.78465943 -6.73523928 5.64417414 -5 3 C-2.5 1.1875 -2.5 1.1875 0 0 Z " fill="#69BAE2" transform="translate(461,416)"/>
<path d="M0 0 C-1.38188453 3.21043882 -2.92421903 5.04936365 -5.625 7.25 C-6.57246094 8.03117187 -6.57246094 8.03117187 -7.5390625 8.828125 C-8.02117188 9.21484375 -8.50328125 9.6015625 -9 10 C-7.6834994 5.81113445 -4.97532335 0 0 0 Z " fill="#F2A275" transform="translate(595,336)"/>
<path d="M0 0 C0.33 0.99 0.66 1.98 1 3 C3.31 3 5.62 3 8 3 C8.33 3.66 8.66 4.32 9 5 C5.7 5 2.4 5 -1 5 C-0.67 3.35 -0.34 1.7 0 0 Z " fill="#CAA38C" transform="translate(479,365)"/>
</svg>
